# Tiled2Unity generated file. Do not modify by hand.
# Wavefront file for 'House01_32_mesh_0005.obj'

# Vertices (Count = 48)
v -3 -3 0
v -4 -3 0
v -4 -2 0
v -3 -2 0
v -4 -3 0
v -5 -3 0
v -5 -2 0
v -4 -2 0
v -6 -3 0
v -7 -3 0
v -7 -2 0
v -6 -2 0
v -7 -3 0
v -8 -3 0
v -8 -2 0
v -7 -2 0
v -8 -3 0
v -9 -3 0
v -9 -2 0
v -8 -2 0
v -9 -3 0
v -10 -3 0
v -10 -2 0
v -9 -2 0
v -10 -3 0
v -11 -3 0
v -11 -2 0
v -10 -2 0
v -6 -4 0
v -7 -4 0
v -7 -3 0
v -6 -3 0
v -7 -4 0
v -8 -4 0
v -8 -3 0
v -7 -3 0
v -8 -4 0
v -9 -4 0
v -9 -3 0
v -8 -3 0
v -2 -7 0
v -3 -7 0
v -3 -6 0
v -2 -6 0
v -3 -7 0
v -4 -7 0
v -4 -6 0
v -3 -6 0

# Texture cooridinates (Count = 27)
vt 0.125 0.78
vt 0.25 0.78
vt 0.25 0.8
vt 0.125 0.8
vt 0.375 0.78
vt 0.375 0.8
vt 0.25 0.66
vt 0.375 0.66
vt 0.375 0.68
vt 0.25 0.68
vt 0.5 0.66
vt 0.5 0.68
vt 0.625 0.66
vt 0.625 0.68
vt 0 0.78
vt 0 0.8
vt 0.5 0.78
vt 0.5 0.8
vt 0.25 0.64
vt 0.375 0.64
vt 0.5 0.64
vt 0.625 0.64
vt 0.25 0.62
vt 0.375 0.62
vt 0.375 0.6
vt 0.5 0.6
vt 0.5 0.62

# Normal
vn 0 0 -1

# Mesh description
g House01_32_mesh_0005

# Faces
f 1/1/1 2/2/1 3/3/1 4/4/1
f 5/2/1 6/5/1 7/6/1 8/3/1
f 9/7/1 10/8/1 11/9/1 12/10/1
f 13/8/1 14/11/1 15/12/1 16/9/1
f 17/11/1 18/13/1 19/14/1 20/12/1
f 21/15/1 22/1/1 23/4/1 24/16/1
f 25/5/1 26/17/1 27/18/1 28/6/1
f 29/19/1 30/20/1 31/8/1 32/7/1
f 33/20/1 34/21/1 35/11/1 36/8/1
f 37/21/1 38/22/1 39/13/1 40/11/1
f 41/23/1 42/24/1 43/20/1 44/19/1
f 45/25/1 46/26/1 47/27/1 48/24/1

