# Tiled2Unity generated file. Do not modify by hand.
# Wavefront file for 'House01_32_mesh_0003.obj'

# Vertices (Count = 208)
v 0 -1 0
v -1 -1 0
v -1 0 0
v 0 0 0
v -1 -1 0
v -2 -1 0
v -2 0 0
v -1 0 0
v -2 -1 0
v -3 -1 0
v -3 0 0
v -2 0 0
v -3 -1 0
v -4 -1 0
v -4 0 0
v -3 0 0
v -4 -1 0
v -5 -1 0
v -5 0 0
v -4 0 0
v -5 -1 0
v -6 -1 0
v -6 0 0
v -5 0 0
v -6 -1 0
v -7 -1 0
v -7 0 0
v -6 0 0
v -7 -1 0
v -8 -1 0
v -8 0 0
v -7 0 0
v -8 -1 0
v -9 -1 0
v -9 0 0
v -8 0 0
v -9 -1 0
v -10 -1 0
v -10 0 0
v -9 0 0
v -10 -1 0
v -11 -1 0
v -11 0 0
v -10 0 0
v -11 -1 0
v -12 -1 0
v -12 0 0
v -11 0 0
v -12 -1 0
v -13 -1 0
v -13 0 0
v -12 0 0
v 0 -2 0
v -1 -2 0
v -1 -1 0
v 0 -1 0
v -1 -2 0
v -2 -2 0
v -2 -1 0
v -1 -1 0
v -2 -2 0
v -3 -2 0
v -3 -1 0
v -2 -1 0
v -3 -2 0
v -4 -2 0
v -4 -1 0
v -3 -1 0
v -4 -2 0
v -5 -2 0
v -5 -1 0
v -4 -1 0
v -5 -2 0
v -6 -2 0
v -6 -1 0
v -5 -1 0
v -6 -2 0
v -7 -2 0
v -7 -1 0
v -6 -1 0
v -7 -2 0
v -8 -2 0
v -8 -1 0
v -7 -1 0
v -8 -2 0
v -9 -2 0
v -9 -1 0
v -8 -1 0
v -9 -2 0
v -10 -2 0
v -10 -1 0
v -9 -1 0
v -10 -2 0
v -11 -2 0
v -11 -1 0
v -10 -1 0
v -11 -2 0
v -12 -2 0
v -12 -1 0
v -11 -1 0
v -12 -2 0
v -13 -2 0
v -13 -1 0
v -12 -1 0
v 0 -3 0
v -1 -3 0
v -1 -2 0
v 0 -2 0
v -1 -3 0
v -2 -3 0
v -2 -2 0
v -1 -2 0
v -2 -3 0
v -3 -3 0
v -3 -2 0
v -2 -2 0
v -3 -3 0
v -4 -3 0
v -4 -2 0
v -3 -2 0
v -4 -3 0
v -5 -3 0
v -5 -2 0
v -4 -2 0
v -5 -3 0
v -6 -3 0
v -6 -2 0
v -5 -2 0
v -6 -3 0
v -7 -3 0
v -7 -2 0
v -6 -2 0
v -7 -3 0
v -8 -3 0
v -8 -2 0
v -7 -2 0
v -8 -3 0
v -9 -3 0
v -9 -2 0
v -8 -2 0
v -9 -3 0
v -10 -3 0
v -10 -2 0
v -9 -2 0
v -10 -3 0
v -11 -3 0
v -11 -2 0
v -10 -2 0
v -11 -3 0
v -12 -3 0
v -12 -2 0
v -11 -2 0
v -12 -3 0
v -13 -3 0
v -13 -2 0
v -12 -2 0
v 0 -4 0
v -1 -4 0
v -1 -3 0
v 0 -3 0
v -1 -4 0
v -2 -4 0
v -2 -3 0
v -1 -3 0
v -2 -4 0
v -3 -4 0
v -3 -3 0
v -2 -3 0
v -3 -4 0
v -4 -4 0
v -4 -3 0
v -3 -3 0
v -4 -4 0
v -5 -4 0
v -5 -3 0
v -4 -3 0
v -5 -4 0
v -6 -4 0
v -6 -3 0
v -5 -3 0
v -6 -4 0
v -7 -4 0
v -7 -3 0
v -6 -3 0
v -7 -4 0
v -8 -4 0
v -8 -3 0
v -7 -3 0
v -8 -4 0
v -9 -4 0
v -9 -3 0
v -8 -3 0
v -9 -4 0
v -10 -4 0
v -10 -3 0
v -9 -3 0
v -10 -4 0
v -11 -4 0
v -11 -3 0
v -10 -3 0
v -11 -4 0
v -12 -4 0
v -12 -3 0
v -11 -3 0
v -12 -4 0
v -13 -4 0
v -13 -3 0
v -12 -3 0

# Texture cooridinates (Count = 9)
vt 0 0.92
vt 0.125 0.92
vt 0.125 0.94
vt 0 0.94
vt 0.25 0.92
vt 0.25 0.94
vt 0 0.9
vt 0.125 0.9
vt 0.25 0.9

# Normal
vn 0 0 -1

# Mesh description
g House01_32_mesh_0003

# Faces
f 1/1/1 2/2/1 3/3/1 4/4/1
f 5/2/1 6/5/1 7/6/1 8/3/1
f 9/2/1 10/5/1 11/6/1 12/3/1
f 13/2/1 14/5/1 15/6/1 16/3/1
f 17/2/1 18/5/1 19/6/1 20/3/1
f 21/2/1 22/5/1 23/6/1 24/3/1
f 25/2/1 26/5/1 27/6/1 28/3/1
f 29/2/1 30/5/1 31/6/1 32/3/1
f 33/2/1 34/5/1 35/6/1 36/3/1
f 37/2/1 38/5/1 39/6/1 40/3/1
f 41/2/1 42/5/1 43/6/1 44/3/1
f 45/2/1 46/5/1 47/6/1 48/3/1
f 49/2/1 50/5/1 51/6/1 52/3/1
f 53/1/1 54/2/1 55/3/1 56/4/1
f 57/2/1 58/5/1 59/6/1 60/3/1
f 61/2/1 62/5/1 63/6/1 64/3/1
f 65/2/1 66/5/1 67/6/1 68/3/1
f 69/2/1 70/5/1 71/6/1 72/3/1
f 73/2/1 74/5/1 75/6/1 76/3/1
f 77/2/1 78/5/1 79/6/1 80/3/1
f 81/2/1 82/5/1 83/6/1 84/3/1
f 85/2/1 86/5/1 87/6/1 88/3/1
f 89/2/1 90/5/1 91/6/1 92/3/1
f 93/2/1 94/5/1 95/6/1 96/3/1
f 97/2/1 98/5/1 99/6/1 100/3/1
f 101/2/1 102/5/1 103/6/1 104/3/1
f 105/1/1 106/2/1 107/3/1 108/4/1
f 109/2/1 110/5/1 111/6/1 112/3/1
f 113/2/1 114/5/1 115/6/1 116/3/1
f 117/2/1 118/5/1 119/6/1 120/3/1
f 121/2/1 122/5/1 123/6/1 124/3/1
f 125/2/1 126/5/1 127/6/1 128/3/1
f 129/2/1 130/5/1 131/6/1 132/3/1
f 133/2/1 134/5/1 135/6/1 136/3/1
f 137/2/1 138/5/1 139/6/1 140/3/1
f 141/2/1 142/5/1 143/6/1 144/3/1
f 145/2/1 146/5/1 147/6/1 148/3/1
f 149/2/1 150/5/1 151/6/1 152/3/1
f 153/2/1 154/5/1 155/6/1 156/3/1
f 157/7/1 158/8/1 159/2/1 160/1/1
f 161/8/1 162/9/1 163/5/1 164/2/1
f 165/8/1 166/9/1 167/5/1 168/2/1
f 169/8/1 170/9/1 171/5/1 172/2/1
f 173/8/1 174/9/1 175/5/1 176/2/1
f 177/8/1 178/9/1 179/5/1 180/2/1
f 181/8/1 182/9/1 183/5/1 184/2/1
f 185/8/1 186/9/1 187/5/1 188/2/1
f 189/8/1 190/9/1 191/5/1 192/2/1
f 193/8/1 194/9/1 195/5/1 196/2/1
f 197/8/1 198/9/1 199/5/1 200/2/1
f 201/8/1 202/9/1 203/5/1 204/2/1
f 205/8/1 206/9/1 207/5/1 208/2/1

