# Tiled2Unity generated file. Do not modify by hand.
# Wavefront file for 'House01_32_mesh_0002.obj'

# Vertices (Count = 16)
v -12 -10 0
v -13 -10 0
v -13 -9 0
v -12 -9 0
v -12 -11 0
v -13 -11 0
v -13 -10 0
v -12 -10 0
v -3 -13 0
v -4 -13 0
v -4 -12 0
v -3 -12 0
v -4 -13 0
v -5 -13 0
v -5 -12 0
v -4 -12 0

# Texture cooridinates (Count = 4)
vt 0.5 0.98
vt 0.625 0.98
vt 0.625 1
vt 0.5 1

# Normal
vn 0 0 -1

# Mesh description
g House01_32_mesh_0002

# Faces
f 1/1/1 2/2/1 3/3/1 4/4/1
f 5/1/1 6/2/1 7/3/1 8/4/1
f 9/1/1 10/2/1 11/3/1 12/4/1
f 13/1/1 14/2/1 15/3/1 16/4/1

