# Tiled2Unity generated file. Do not modify by hand.
# Wavefront file for 'House01_32_mesh_0004.obj'

# Vertices (Count = 200)
v 0 -3 0
v -1 -3 0
v -1 -2 0
v 0 -2 0
v -1 -3 0
v -2 -3 0
v -2 -2 0
v -1 -2 0
v -2 -3 0
v -3 -3 0
v -3 -2 0
v -2 -2 0
v -11 -3 0
v -12 -3 0
v -12 -2 0
v -11 -2 0
v -12 -3 0
v -13 -3 0
v -13 -2 0
v -12 -2 0
v 0 -4 0
v -1 -4 0
v -1 -3 0
v 0 -3 0
v -1 -4 0
v -2 -4 0
v -2 -3 0
v -1 -3 0
v -2 -4 0
v -3 -4 0
v -3 -3 0
v -2 -3 0
v -5 -4 0
v -6 -4 0
v -6 -3 0
v -5 -3 0
v -6 -4 0
v -7 -4 0
v -7 -3 0
v -6 -3 0
v -7 -4 0
v -8 -4 0
v -8 -3 0
v -7 -3 0
v -8 -4 0
v -9 -4 0
v -9 -3 0
v -8 -3 0
v -11 -4 0
v -12 -4 0
v -12 -3 0
v -11 -3 0
v -12 -4 0
v -13 -4 0
v -13 -3 0
v -12 -3 0
v 0 -5 0
v -1 -5 0
v -1 -4 0
v 0 -4 0
v -1 -5 0
v -2 -5 0
v -2 -4 0
v -1 -4 0
v -2 -5 0
v -3 -5 0
v -3 -4 0
v -2 -4 0
v -5 -5 0
v -6 -5 0
v -6 -4 0
v -5 -4 0
v -6 -5 0
v -7 -5 0
v -7 -4 0
v -6 -4 0
v -7 -5 0
v -8 -5 0
v -8 -4 0
v -7 -4 0
v -8 -5 0
v -9 -5 0
v -9 -4 0
v -8 -4 0
v -11 -5 0
v -12 -5 0
v -12 -4 0
v -11 -4 0
v -12 -5 0
v -13 -5 0
v -13 -4 0
v -12 -4 0
v -1 -6 0
v -2 -6 0
v -2 -5 0
v -1 -5 0
v -2 -6 0
v -3 -6 0
v -3 -5 0
v -2 -5 0
v -3 -6 0
v -4 -6 0
v -4 -5 0
v -3 -5 0
v -5 -6 0
v -6 -6 0
v -6 -5 0
v -5 -5 0
v -9 -6 0
v -10 -6 0
v -10 -5 0
v -9 -5 0
v -1 -7 0
v -2 -7 0
v -2 -6 0
v -1 -6 0
v -2 -7 0
v -3 -7 0
v -3 -6 0
v -2 -6 0
v -3 -7 0
v -4 -7 0
v -4 -6 0
v -3 -6 0
v -5 -7 0
v -6 -7 0
v -6 -6 0
v -5 -6 0
v -6 -7 0
v -7 -7 0
v -7 -6 0
v -6 -6 0
v -7 -7 0
v -8 -7 0
v -8 -6 0
v -7 -6 0
v -8 -7 0
v -9 -7 0
v -9 -6 0
v -8 -6 0
v -9 -7 0
v -10 -7 0
v -10 -6 0
v -9 -6 0
v -1 -8 0
v -2 -8 0
v -2 -7 0
v -1 -7 0
v -2 -8 0
v -3 -8 0
v -3 -7 0
v -2 -7 0
v -3 -8 0
v -4 -8 0
v -4 -7 0
v -3 -7 0
v -5 -8 0
v -6 -8 0
v -6 -7 0
v -5 -7 0
v -6 -8 0
v -7 -8 0
v -7 -7 0
v -6 -7 0
v -7 -8 0
v -8 -8 0
v -8 -7 0
v -7 -7 0
v -8 -8 0
v -9 -8 0
v -9 -7 0
v -8 -7 0
v -9 -8 0
v -10 -8 0
v -10 -7 0
v -9 -7 0
v 0 -9 0
v -1 -9 0
v -1 -8 0
v 0 -8 0
v -6 -9 0
v -7 -9 0
v -7 -8 0
v -6 -8 0
v -7 -9 0
v -8 -9 0
v -8 -8 0
v -7 -8 0
v -8 -9 0
v -9 -9 0
v -9 -8 0
v -8 -8 0
v 0 -10 0
v -1 -10 0
v -1 -9 0
v 0 -9 0
v 0 -11 0
v -1 -11 0
v -1 -10 0
v 0 -10 0

# Texture cooridinates (Count = 85)
vt 0 0.32
vt 0.125 0.32
vt 0.125 0.34
vt 0 0.34
vt 0.25 0.32
vt 0.25 0.34
vt 0.375 0.32
vt 0.375 0.34
vt 0.25 0.56
vt 0.375 0.56
vt 0.375 0.58
vt 0.25 0.58
vt 0.5 0.56
vt 0.5 0.58
vt 0 0.3
vt 0.125 0.3
vt 0.25 0.3
vt 0.375 0.3
vt 0 0.44
vt 0.125 0.44
vt 0.125 0.46
vt 0 0.46
vt 0.25 0.44
vt 0.25 0.46
vt 0.375 0.44
vt 0.375 0.46
vt 0.5 0.44
vt 0.5 0.46
vt 0.25 0.54
vt 0.375 0.54
vt 0.5 0.54
vt 0 0.28
vt 0.125 0.28
vt 0.25 0.28
vt 0.375 0.28
vt 0 0.42
vt 0.125 0.42
vt 0.25 0.42
vt 0.375 0.42
vt 0.5 0.42
vt 0.25 0.52
vt 0.375 0.52
vt 0.5 0.52
vt 0 0.5
vt 0.125 0.5
vt 0.125 0.52
vt 0 0.52
vt 0.25 0.5
vt 0.375 0.5
vt 0 0.76
vt 0.125 0.76
vt 0.125 0.78
vt 0 0.78
vt 0.25 0.76
vt 0.25 0.78
vt 0 0.48
vt 0.125 0.48
vt 0.25 0.48
vt 0.375 0.48
vt 0 0.74
vt 0.125 0.74
vt 0.25 0.72
vt 0.375 0.72
vt 0.375 0.74
vt 0.25 0.74
vt 0.5 0.72
vt 0.5 0.74
vt 0.625 0.72
vt 0.625 0.74
vt 0 0.72
vt 0.125 0.72
vt 0.25 0.7
vt 0.375 0.7
vt 0.5 0.7
vt 0.625 0.7
vt 0 0.38
vt 0.125 0.38
vt 0.125 0.4
vt 0 0.4
vt 0.25 0.68
vt 0.375 0.68
vt 0.5 0.68
vt 0.625 0.68
vt 0 0.36
vt 0.125 0.36

# Normal
vn 0 0 -1

# Mesh description
g House01_32_mesh_0004

# Faces
f 1/1/1 2/2/1 3/3/1 4/4/1
f 5/2/1 6/5/1 7/6/1 8/3/1
f 9/5/1 10/7/1 11/8/1 12/6/1
f 13/9/1 14/10/1 15/11/1 16/12/1
f 17/10/1 18/13/1 19/14/1 20/11/1
f 21/15/1 22/16/1 23/2/1 24/1/1
f 25/16/1 26/17/1 27/5/1 28/2/1
f 29/17/1 30/18/1 31/7/1 32/5/1
f 33/19/1 34/20/1 35/21/1 36/22/1
f 37/20/1 38/23/1 39/24/1 40/21/1
f 41/23/1 42/25/1 43/26/1 44/24/1
f 45/25/1 46/27/1 47/28/1 48/26/1
f 49/29/1 50/30/1 51/10/1 52/9/1
f 53/30/1 54/31/1 55/13/1 56/10/1
f 57/32/1 58/33/1 59/16/1 60/15/1
f 61/33/1 62/34/1 63/17/1 64/16/1
f 65/34/1 66/35/1 67/18/1 68/17/1
f 69/36/1 70/37/1 71/20/1 72/19/1
f 73/37/1 74/38/1 75/23/1 76/20/1
f 77/38/1 78/39/1 79/25/1 80/23/1
f 81/39/1 82/40/1 83/27/1 84/25/1
f 85/41/1 86/42/1 87/30/1 88/29/1
f 89/42/1 90/43/1 91/31/1 92/30/1
f 93/44/1 94/45/1 95/46/1 96/47/1
f 97/45/1 98/48/1 99/41/1 100/46/1
f 101/48/1 102/49/1 103/42/1 104/41/1
f 105/50/1 106/51/1 107/52/1 108/53/1
f 109/51/1 110/54/1 111/55/1 112/52/1
f 113/56/1 114/57/1 115/45/1 116/44/1
f 117/57/1 118/58/1 119/48/1 120/45/1
f 121/58/1 122/59/1 123/49/1 124/48/1
f 125/60/1 126/61/1 127/51/1 128/50/1
f 129/62/1 130/63/1 131/64/1 132/65/1
f 133/63/1 134/66/1 135/67/1 136/64/1
f 137/66/1 138/68/1 139/69/1 140/67/1
f 141/61/1 142/65/1 143/54/1 144/51/1
f 145/22/1 146/21/1 147/57/1 148/56/1
f 149/21/1 150/24/1 151/58/1 152/57/1
f 153/24/1 154/26/1 155/59/1 156/58/1
f 157/70/1 158/71/1 159/61/1 160/60/1
f 161/72/1 162/73/1 163/63/1 164/62/1
f 165/73/1 166/74/1 167/66/1 168/63/1
f 169/74/1 170/75/1 171/68/1 172/66/1
f 173/71/1 174/62/1 175/65/1 176/61/1
f 177/76/1 178/77/1 179/78/1 180/79/1
f 181/80/1 182/81/1 183/73/1 184/72/1
f 185/81/1 186/82/1 187/74/1 188/73/1
f 189/82/1 190/83/1 191/75/1 192/74/1
f 193/84/1 194/85/1 195/77/1 196/76/1
f 197/4/1 198/3/1 199/85/1 200/84/1

