# Tiled2Unity generated file. Do not modify by hand.
# Wavefront file for 'BattleMapRight01_mesh_0002.obj'

# Vertices (Count = 368)
v -58 -13 0
v -59 -13 0
v -59 -12 0
v -58 -12 0
v -57 -13 0
v -58 -13 0
v -58 -12 0
v -57 -12 0
v -56 -13 0
v -57 -13 0
v -57 -12 0
v -56 -12 0
v -66 -14 0
v -67 -14 0
v -67 -13 0
v -66 -13 0
v -65 -14 0
v -66 -14 0
v -66 -13 0
v -65 -13 0
v -48 -14 0
v -49 -14 0
v -49 -13 0
v -48 -13 0
v -47 -14 0
v -48 -14 0
v -48 -13 0
v -47 -13 0
v -38 -14 0
v -39 -14 0
v -39 -13 0
v -38 -13 0
v -37 -14 0
v -38 -14 0
v -38 -13 0
v -37 -13 0
v -32 -14 0
v -33 -14 0
v -33 -13 0
v -32 -13 0
v -23 -14 0
v -24 -14 0
v -24 -13 0
v -23 -13 0
v -22 -14 0
v -23 -14 0
v -23 -13 0
v -22 -13 0
v -51 -15 0
v -52 -15 0
v -52 -14 0
v -51 -14 0
v -50 -15 0
v -51 -15 0
v -51 -14 0
v -50 -14 0
v -41 -15 0
v -42 -15 0
v -42 -14 0
v -41 -14 0
v -38 -15 0
v -39 -15 0
v -39 -14 0
v -38 -14 0
v -15 -15 0
v -16 -15 0
v -16 -14 0
v -15 -14 0
v -68 -16 0
v -69 -16 0
v -69 -15 0
v -68 -15 0
v -69 -17 0
v -70 -17 0
v -70 -16 0
v -69 -16 0
v -11 -18 0
v -12 -18 0
v -12 -17 0
v -11 -17 0
v -38 -19 0
v -39 -19 0
v -39 -18 0
v -38 -18 0
v -57 -20 0
v -58 -20 0
v -58 -19 0
v -57 -19 0
v -56 -20 0
v -57 -20 0
v -57 -19 0
v -56 -19 0
v -38 -20 0
v -39 -20 0
v -39 -19 0
v -38 -19 0
v -63 -21 0
v -64 -21 0
v -64 -20 0
v -63 -20 0
v -46 -21 0
v -47 -21 0
v -47 -20 0
v -46 -20 0
v -38 -21 0
v -39 -21 0
v -39 -20 0
v -38 -20 0
v -70 -23 0
v -71 -23 0
v -71 -22 0
v -70 -22 0
v -70 -24 0
v -71 -24 0
v -71 -23 0
v -70 -23 0
v -10 -25 0
v -11 -25 0
v -11 -24 0
v -10 -24 0
v -62 -27 0
v -63 -27 0
v -63 -26 0
v -62 -26 0
v -53 -27 0
v -54 -27 0
v -54 -26 0
v -53 -26 0
v -50 -27 0
v -51 -27 0
v -51 -26 0
v -50 -26 0
v -46 -27 0
v -47 -27 0
v -47 -26 0
v -46 -26 0
v -38 -27 0
v -39 -27 0
v -39 -26 0
v -38 -26 0
v -62 -28 0
v -63 -28 0
v -63 -27 0
v -62 -27 0
v -55 -28 0
v -56 -28 0
v -56 -27 0
v -55 -27 0
v -38 -28 0
v -39 -28 0
v -39 -27 0
v -38 -27 0
v -62 -29 0
v -63 -29 0
v -63 -28 0
v -62 -28 0
v -11 -29 0
v -12 -29 0
v -12 -28 0
v -11 -28 0
v -69 -31 0
v -70 -31 0
v -70 -30 0
v -69 -30 0
v -56 -31 0
v -57 -31 0
v -57 -30 0
v -56 -30 0
v -69 -32 0
v -70 -32 0
v -70 -31 0
v -69 -31 0
v -42 -32 0
v -43 -32 0
v -43 -31 0
v -42 -31 0
v -9 -32 0
v -10 -32 0
v -10 -31 0
v -9 -31 0
v -61 -33 0
v -62 -33 0
v -62 -32 0
v -61 -32 0
v -50 -33 0
v -51 -33 0
v -51 -32 0
v -50 -32 0
v -47 -33 0
v -48 -33 0
v -48 -32 0
v -47 -32 0
v -61 -34 0
v -62 -34 0
v -62 -33 0
v -61 -33 0
v -56 -34 0
v -57 -34 0
v -57 -33 0
v -56 -33 0
v -39 -34 0
v -40 -34 0
v -40 -33 0
v -39 -33 0
v -55 -35 0
v -56 -35 0
v -56 -34 0
v -55 -34 0
v -11 -35 0
v -12 -35 0
v -12 -34 0
v -11 -34 0
v -9 -35 0
v -10 -35 0
v -10 -34 0
v -9 -34 0
v -56 -36 0
v -57 -36 0
v -57 -35 0
v -56 -35 0
v -63 -38 0
v -64 -38 0
v -64 -37 0
v -63 -37 0
v -62 -38 0
v -63 -38 0
v -63 -37 0
v -62 -37 0
v -69 -39 0
v -70 -39 0
v -70 -38 0
v -69 -38 0
v -64 -39 0
v -65 -39 0
v -65 -38 0
v -64 -38 0
v -63 -39 0
v -64 -39 0
v -64 -38 0
v -63 -38 0
v -11 -39 0
v -12 -39 0
v -12 -38 0
v -11 -38 0
v -65 -45 0
v -66 -45 0
v -66 -44 0
v -65 -44 0
v -12 -45 0
v -13 -45 0
v -13 -44 0
v -12 -44 0
v -69 -46 0
v -70 -46 0
v -70 -45 0
v -69 -45 0
v -69 -47 0
v -70 -47 0
v -70 -46 0
v -69 -46 0
v -55 -47 0
v -56 -47 0
v -56 -46 0
v -55 -46 0
v -40 -47 0
v -41 -47 0
v -41 -46 0
v -40 -46 0
v -11 -47 0
v -12 -47 0
v -12 -46 0
v -11 -46 0
v -64 -48 0
v -65 -48 0
v -65 -47 0
v -64 -47 0
v -55 -48 0
v -56 -48 0
v -56 -47 0
v -55 -47 0
v -47 -48 0
v -48 -48 0
v -48 -47 0
v -47 -47 0
v -46 -48 0
v -47 -48 0
v -47 -47 0
v -46 -47 0
v -62 -49 0
v -63 -49 0
v -63 -48 0
v -62 -48 0
v -10 -49 0
v -11 -49 0
v -11 -48 0
v -10 -48 0
v -10 -52 0
v -11 -52 0
v -11 -51 0
v -10 -51 0
v -62 -53 0
v -63 -53 0
v -63 -52 0
v -62 -52 0
v -44 -53 0
v -45 -53 0
v -45 -52 0
v -44 -52 0
v -69 -54 0
v -70 -54 0
v -70 -53 0
v -69 -53 0
v -53 -54 0
v -54 -54 0
v -54 -53 0
v -53 -53 0
v -48 -55 0
v -49 -55 0
v -49 -54 0
v -48 -54 0
v -39 -55 0
v -40 -55 0
v -40 -54 0
v -39 -54 0
v -11 -55 0
v -12 -55 0
v -12 -54 0
v -11 -54 0
v -68 -59 0
v -69 -59 0
v -69 -58 0
v -68 -58 0
v -60 -59 0
v -61 -59 0
v -61 -58 0
v -60 -58 0
v -33 -60 0
v -34 -60 0
v -34 -59 0
v -33 -59 0
v -13 -60 0
v -14 -60 0
v -14 -59 0
v -13 -59 0
v -63 -61 0
v -64 -61 0
v -64 -60 0
v -63 -60 0
v -52 -61 0
v -53 -61 0
v -53 -60 0
v -52 -60 0
v -38 -61 0
v -39 -61 0
v -39 -60 0
v -38 -60 0
v -23 -61 0
v -24 -61 0
v -24 -60 0
v -23 -60 0
v -10 -61 0
v -11 -61 0
v -11 -60 0
v -10 -60 0
v -43 -62 0
v -44 -62 0
v -44 -61 0
v -43 -61 0

# Texture cooridinates (Count = 4)
vt 0.375 0.56
vt 0.5 0.56
vt 0.5 0.58
vt 0.375 0.58

# Normal
vn 0 0 -1

# Mesh description
g BattleMapRight01_mesh_0002

# Faces
f 1/1/1 2/2/1 3/3/1 4/4/1
f 5/1/1 6/2/1 7/3/1 8/4/1
f 9/1/1 10/2/1 11/3/1 12/4/1
f 13/1/1 14/2/1 15/3/1 16/4/1
f 17/1/1 18/2/1 19/3/1 20/4/1
f 21/1/1 22/2/1 23/3/1 24/4/1
f 25/1/1 26/2/1 27/3/1 28/4/1
f 29/1/1 30/2/1 31/3/1 32/4/1
f 33/1/1 34/2/1 35/3/1 36/4/1
f 37/1/1 38/2/1 39/3/1 40/4/1
f 41/1/1 42/2/1 43/3/1 44/4/1
f 45/1/1 46/2/1 47/3/1 48/4/1
f 49/1/1 50/2/1 51/3/1 52/4/1
f 53/1/1 54/2/1 55/3/1 56/4/1
f 57/1/1 58/2/1 59/3/1 60/4/1
f 61/1/1 62/2/1 63/3/1 64/4/1
f 65/1/1 66/2/1 67/3/1 68/4/1
f 69/1/1 70/2/1 71/3/1 72/4/1
f 73/1/1 74/2/1 75/3/1 76/4/1
f 77/1/1 78/2/1 79/3/1 80/4/1
f 81/1/1 82/2/1 83/3/1 84/4/1
f 85/1/1 86/2/1 87/3/1 88/4/1
f 89/1/1 90/2/1 91/3/1 92/4/1
f 93/1/1 94/2/1 95/3/1 96/4/1
f 97/1/1 98/2/1 99/3/1 100/4/1
f 101/1/1 102/2/1 103/3/1 104/4/1
f 105/1/1 106/2/1 107/3/1 108/4/1
f 109/1/1 110/2/1 111/3/1 112/4/1
f 113/1/1 114/2/1 115/3/1 116/4/1
f 117/1/1 118/2/1 119/3/1 120/4/1
f 121/1/1 122/2/1 123/3/1 124/4/1
f 125/1/1 126/2/1 127/3/1 128/4/1
f 129/1/1 130/2/1 131/3/1 132/4/1
f 133/1/1 134/2/1 135/3/1 136/4/1
f 137/1/1 138/2/1 139/3/1 140/4/1
f 141/1/1 142/2/1 143/3/1 144/4/1
f 145/1/1 146/2/1 147/3/1 148/4/1
f 149/1/1 150/2/1 151/3/1 152/4/1
f 153/1/1 154/2/1 155/3/1 156/4/1
f 157/1/1 158/2/1 159/3/1 160/4/1
f 161/1/1 162/2/1 163/3/1 164/4/1
f 165/1/1 166/2/1 167/3/1 168/4/1
f 169/1/1 170/2/1 171/3/1 172/4/1
f 173/1/1 174/2/1 175/3/1 176/4/1
f 177/1/1 178/2/1 179/3/1 180/4/1
f 181/1/1 182/2/1 183/3/1 184/4/1
f 185/1/1 186/2/1 187/3/1 188/4/1
f 189/1/1 190/2/1 191/3/1 192/4/1
f 193/1/1 194/2/1 195/3/1 196/4/1
f 197/1/1 198/2/1 199/3/1 200/4/1
f 201/1/1 202/2/1 203/3/1 204/4/1
f 205/1/1 206/2/1 207/3/1 208/4/1
f 209/1/1 210/2/1 211/3/1 212/4/1
f 213/1/1 214/2/1 215/3/1 216/4/1
f 217/1/1 218/2/1 219/3/1 220/4/1
f 221/1/1 222/2/1 223/3/1 224/4/1
f 225/1/1 226/2/1 227/3/1 228/4/1
f 229/1/1 230/2/1 231/3/1 232/4/1
f 233/1/1 234/2/1 235/3/1 236/4/1
f 237/1/1 238/2/1 239/3/1 240/4/1
f 241/1/1 242/2/1 243/3/1 244/4/1
f 245/1/1 246/2/1 247/3/1 248/4/1
f 249/1/1 250/2/1 251/3/1 252/4/1
f 253/1/1 254/2/1 255/3/1 256/4/1
f 257/1/1 258/2/1 259/3/1 260/4/1
f 261/1/1 262/2/1 263/3/1 264/4/1
f 265/1/1 266/2/1 267/3/1 268/4/1
f 269/1/1 270/2/1 271/3/1 272/4/1
f 273/1/1 274/2/1 275/3/1 276/4/1
f 277/1/1 278/2/1 279/3/1 280/4/1
f 281/1/1 282/2/1 283/3/1 284/4/1
f 285/1/1 286/2/1 287/3/1 288/4/1
f 289/1/1 290/2/1 291/3/1 292/4/1
f 293/1/1 294/2/1 295/3/1 296/4/1
f 297/1/1 298/2/1 299/3/1 300/4/1
f 301/1/1 302/2/1 303/3/1 304/4/1
f 305/1/1 306/2/1 307/3/1 308/4/1
f 309/1/1 310/2/1 311/3/1 312/4/1
f 313/1/1 314/2/1 315/3/1 316/4/1
f 317/1/1 318/2/1 319/3/1 320/4/1
f 321/1/1 322/2/1 323/3/1 324/4/1
f 325/1/1 326/2/1 327/3/1 328/4/1
f 329/1/1 330/2/1 331/3/1 332/4/1
f 333/1/1 334/2/1 335/3/1 336/4/1
f 337/1/1 338/2/1 339/3/1 340/4/1
f 341/1/1 342/2/1 343/3/1 344/4/1
f 345/1/1 346/2/1 347/3/1 348/4/1
f 349/1/1 350/2/1 351/3/1 352/4/1
f 353/1/1 354/2/1 355/3/1 356/4/1
f 357/1/1 358/2/1 359/3/1 360/4/1
f 361/1/1 362/2/1 363/3/1 364/4/1
f 365/1/1 366/2/1 367/3/1 368/4/1

