# Tiled2Unity generated file. Do not modify by hand.
# Wavefront file for 'BattleMapUP01_mesh_0002.obj'

# Vertices (Count = 756)
v -61 -4 0
v -62 -4 0
v -62 -3 0
v -61 -3 0
v -60 -4 0
v -61 -4 0
v -61 -3 0
v -60 -3 0
v -59 -4 0
v -60 -4 0
v -60 -3 0
v -59 -3 0
v -58 -4 0
v -59 -4 0
v -59 -3 0
v -58 -3 0
v -57 -4 0
v -58 -4 0
v -58 -3 0
v -57 -3 0
v -56 -4 0
v -57 -4 0
v -57 -3 0
v -56 -3 0
v -55 -4 0
v -56 -4 0
v -56 -3 0
v -55 -3 0
v -54 -4 0
v -55 -4 0
v -55 -3 0
v -54 -3 0
v -53 -4 0
v -54 -4 0
v -54 -3 0
v -53 -3 0
v -52 -4 0
v -53 -4 0
v -53 -3 0
v -52 -3 0
v -51 -4 0
v -52 -4 0
v -52 -3 0
v -51 -3 0
v -50 -4 0
v -51 -4 0
v -51 -3 0
v -50 -3 0
v -61 -5 0
v -62 -5 0
v -62 -4 0
v -61 -4 0
v -60 -5 0
v -61 -5 0
v -61 -4 0
v -60 -4 0
v -59 -5 0
v -60 -5 0
v -60 -4 0
v -59 -4 0
v -58 -5 0
v -59 -5 0
v -59 -4 0
v -58 -4 0
v -57 -5 0
v -58 -5 0
v -58 -4 0
v -57 -4 0
v -56 -5 0
v -57 -5 0
v -57 -4 0
v -56 -4 0
v -55 -5 0
v -56 -5 0
v -56 -4 0
v -55 -4 0
v -54 -5 0
v -55 -5 0
v -55 -4 0
v -54 -4 0
v -53 -5 0
v -54 -5 0
v -54 -4 0
v -53 -4 0
v -52 -5 0
v -53 -5 0
v -53 -4 0
v -52 -4 0
v -51 -5 0
v -52 -5 0
v -52 -4 0
v -51 -4 0
v -50 -5 0
v -51 -5 0
v -51 -4 0
v -50 -4 0
v -61 -6 0
v -62 -6 0
v -62 -5 0
v -61 -5 0
v -60 -6 0
v -61 -6 0
v -61 -5 0
v -60 -5 0
v -59 -6 0
v -60 -6 0
v -60 -5 0
v -59 -5 0
v -58 -6 0
v -59 -6 0
v -59 -5 0
v -58 -5 0
v -57 -6 0
v -58 -6 0
v -58 -5 0
v -57 -5 0
v -56 -6 0
v -57 -6 0
v -57 -5 0
v -56 -5 0
v -55 -6 0
v -56 -6 0
v -56 -5 0
v -55 -5 0
v -54 -6 0
v -55 -6 0
v -55 -5 0
v -54 -5 0
v -53 -6 0
v -54 -6 0
v -54 -5 0
v -53 -5 0
v -52 -6 0
v -53 -6 0
v -53 -5 0
v -52 -5 0
v -51 -6 0
v -52 -6 0
v -52 -5 0
v -51 -5 0
v -50 -6 0
v -51 -6 0
v -51 -5 0
v -50 -5 0
v -61 -7 0
v -62 -7 0
v -62 -6 0
v -61 -6 0
v -60 -7 0
v -61 -7 0
v -61 -6 0
v -60 -6 0
v -59 -7 0
v -60 -7 0
v -60 -6 0
v -59 -6 0
v -58 -7 0
v -59 -7 0
v -59 -6 0
v -58 -6 0
v -57 -7 0
v -58 -7 0
v -58 -6 0
v -57 -6 0
v -56 -7 0
v -57 -7 0
v -57 -6 0
v -56 -6 0
v -55 -7 0
v -56 -7 0
v -56 -6 0
v -55 -6 0
v -54 -7 0
v -55 -7 0
v -55 -6 0
v -54 -6 0
v -53 -7 0
v -54 -7 0
v -54 -6 0
v -53 -6 0
v -52 -7 0
v -53 -7 0
v -53 -6 0
v -52 -6 0
v -51 -7 0
v -52 -7 0
v -52 -6 0
v -51 -6 0
v -50 -7 0
v -51 -7 0
v -51 -6 0
v -50 -6 0
v -61 -8 0
v -62 -8 0
v -62 -7 0
v -61 -7 0
v -60 -8 0
v -61 -8 0
v -61 -7 0
v -60 -7 0
v -59 -8 0
v -60 -8 0
v -60 -7 0
v -59 -7 0
v -58 -8 0
v -59 -8 0
v -59 -7 0
v -58 -7 0
v -57 -8 0
v -58 -8 0
v -58 -7 0
v -57 -7 0
v -56 -8 0
v -57 -8 0
v -57 -7 0
v -56 -7 0
v -55 -8 0
v -56 -8 0
v -56 -7 0
v -55 -7 0
v -54 -8 0
v -55 -8 0
v -55 -7 0
v -54 -7 0
v -53 -8 0
v -54 -8 0
v -54 -7 0
v -53 -7 0
v -52 -8 0
v -53 -8 0
v -53 -7 0
v -52 -7 0
v -51 -8 0
v -52 -8 0
v -52 -7 0
v -51 -7 0
v -50 -8 0
v -51 -8 0
v -51 -7 0
v -50 -7 0
v -61 -9 0
v -62 -9 0
v -62 -8 0
v -61 -8 0
v -60 -9 0
v -61 -9 0
v -61 -8 0
v -60 -8 0
v -59 -9 0
v -60 -9 0
v -60 -8 0
v -59 -8 0
v -58 -9 0
v -59 -9 0
v -59 -8 0
v -58 -8 0
v -57 -9 0
v -58 -9 0
v -58 -8 0
v -57 -8 0
v -56 -9 0
v -57 -9 0
v -57 -8 0
v -56 -8 0
v -55 -9 0
v -56 -9 0
v -56 -8 0
v -55 -8 0
v -54 -9 0
v -55 -9 0
v -55 -8 0
v -54 -8 0
v -53 -9 0
v -54 -9 0
v -54 -8 0
v -53 -8 0
v -52 -9 0
v -53 -9 0
v -53 -8 0
v -52 -8 0
v -51 -9 0
v -52 -9 0
v -52 -8 0
v -51 -8 0
v -50 -9 0
v -51 -9 0
v -51 -8 0
v -50 -8 0
v -61 -10 0
v -62 -10 0
v -62 -9 0
v -61 -9 0
v -60 -10 0
v -61 -10 0
v -61 -9 0
v -60 -9 0
v -59 -10 0
v -60 -10 0
v -60 -9 0
v -59 -9 0
v -58 -10 0
v -59 -10 0
v -59 -9 0
v -58 -9 0
v -57 -10 0
v -58 -10 0
v -58 -9 0
v -57 -9 0
v -56 -10 0
v -57 -10 0
v -57 -9 0
v -56 -9 0
v -55 -10 0
v -56 -10 0
v -56 -9 0
v -55 -9 0
v -54 -10 0
v -55 -10 0
v -55 -9 0
v -54 -9 0
v -53 -10 0
v -54 -10 0
v -54 -9 0
v -53 -9 0
v -52 -10 0
v -53 -10 0
v -53 -9 0
v -52 -9 0
v -51 -10 0
v -52 -10 0
v -52 -9 0
v -51 -9 0
v -50 -10 0
v -51 -10 0
v -51 -9 0
v -50 -9 0
v -61 -11 0
v -62 -11 0
v -62 -10 0
v -61 -10 0
v -60 -11 0
v -61 -11 0
v -61 -10 0
v -60 -10 0
v -59 -11 0
v -60 -11 0
v -60 -10 0
v -59 -10 0
v -58 -11 0
v -59 -11 0
v -59 -10 0
v -58 -10 0
v -57 -11 0
v -58 -11 0
v -58 -10 0
v -57 -10 0
v -56 -11 0
v -57 -11 0
v -57 -10 0
v -56 -10 0
v -55 -11 0
v -56 -11 0
v -56 -10 0
v -55 -10 0
v -54 -11 0
v -55 -11 0
v -55 -10 0
v -54 -10 0
v -53 -11 0
v -54 -11 0
v -54 -10 0
v -53 -10 0
v -52 -11 0
v -53 -11 0
v -53 -10 0
v -52 -10 0
v -51 -11 0
v -52 -11 0
v -52 -10 0
v -51 -10 0
v -61 -12 0
v -62 -12 0
v -62 -11 0
v -61 -11 0
v -60 -12 0
v -61 -12 0
v -61 -11 0
v -60 -11 0
v -59 -12 0
v -60 -12 0
v -60 -11 0
v -59 -11 0
v -58 -12 0
v -59 -12 0
v -59 -11 0
v -58 -11 0
v -57 -12 0
v -58 -12 0
v -58 -11 0
v -57 -11 0
v -56 -12 0
v -57 -12 0
v -57 -11 0
v -56 -11 0
v -55 -12 0
v -56 -12 0
v -56 -11 0
v -55 -11 0
v -54 -12 0
v -55 -12 0
v -55 -11 0
v -54 -11 0
v -53 -12 0
v -54 -12 0
v -54 -11 0
v -53 -11 0
v -52 -12 0
v -53 -12 0
v -53 -11 0
v -52 -11 0
v -61 -13 0
v -62 -13 0
v -62 -12 0
v -61 -12 0
v -60 -13 0
v -61 -13 0
v -61 -12 0
v -60 -12 0
v -59 -13 0
v -60 -13 0
v -60 -12 0
v -59 -12 0
v -58 -13 0
v -59 -13 0
v -59 -12 0
v -58 -12 0
v -57 -13 0
v -58 -13 0
v -58 -12 0
v -57 -12 0
v -56 -13 0
v -57 -13 0
v -57 -12 0
v -56 -12 0
v -55 -13 0
v -56 -13 0
v -56 -12 0
v -55 -12 0
v -54 -13 0
v -55 -13 0
v -55 -12 0
v -54 -12 0
v -53 -13 0
v -54 -13 0
v -54 -12 0
v -53 -12 0
v -61 -14 0
v -62 -14 0
v -62 -13 0
v -61 -13 0
v -60 -14 0
v -61 -14 0
v -61 -13 0
v -60 -13 0
v -59 -14 0
v -60 -14 0
v -60 -13 0
v -59 -13 0
v -58 -14 0
v -59 -14 0
v -59 -13 0
v -58 -13 0
v -57 -14 0
v -58 -14 0
v -58 -13 0
v -57 -13 0
v -56 -14 0
v -57 -14 0
v -57 -13 0
v -56 -13 0
v -55 -14 0
v -56 -14 0
v -56 -13 0
v -55 -13 0
v -54 -14 0
v -55 -14 0
v -55 -13 0
v -54 -13 0
v -61 -15 0
v -62 -15 0
v -62 -14 0
v -61 -14 0
v -60 -15 0
v -61 -15 0
v -61 -14 0
v -60 -14 0
v -59 -15 0
v -60 -15 0
v -60 -14 0
v -59 -14 0
v -58 -15 0
v -59 -15 0
v -59 -14 0
v -58 -14 0
v -57 -15 0
v -58 -15 0
v -58 -14 0
v -57 -14 0
v -56 -15 0
v -57 -15 0
v -57 -14 0
v -56 -14 0
v -55 -15 0
v -56 -15 0
v -56 -14 0
v -55 -14 0
v -61 -16 0
v -62 -16 0
v -62 -15 0
v -61 -15 0
v -60 -16 0
v -61 -16 0
v -61 -15 0
v -60 -15 0
v -59 -16 0
v -60 -16 0
v -60 -15 0
v -59 -15 0
v -58 -16 0
v -59 -16 0
v -59 -15 0
v -58 -15 0
v -57 -16 0
v -58 -16 0
v -58 -15 0
v -57 -15 0
v -56 -16 0
v -57 -16 0
v -57 -15 0
v -56 -15 0
v -55 -30 0
v -56 -30 0
v -56 -29 0
v -55 -29 0
v -54 -30 0
v -55 -30 0
v -55 -29 0
v -54 -29 0
v -53 -30 0
v -54 -30 0
v -54 -29 0
v -53 -29 0
v -52 -30 0
v -53 -30 0
v -53 -29 0
v -52 -29 0
v -51 -30 0
v -52 -30 0
v -52 -29 0
v -51 -29 0
v -50 -30 0
v -51 -30 0
v -51 -29 0
v -50 -29 0
v -49 -30 0
v -50 -30 0
v -50 -29 0
v -49 -29 0
v -48 -30 0
v -49 -30 0
v -49 -29 0
v -48 -29 0
v -47 -30 0
v -48 -30 0
v -48 -29 0
v -47 -29 0
v -46 -30 0
v -47 -30 0
v -47 -29 0
v -46 -29 0
v -55 -31 0
v -56 -31 0
v -56 -30 0
v -55 -30 0
v -54 -31 0
v -55 -31 0
v -55 -30 0
v -54 -30 0
v -53 -31 0
v -54 -31 0
v -54 -30 0
v -53 -30 0
v -52 -31 0
v -53 -31 0
v -53 -30 0
v -52 -30 0
v -51 -31 0
v -52 -31 0
v -52 -30 0
v -51 -30 0
v -50 -31 0
v -51 -31 0
v -51 -30 0
v -50 -30 0
v -49 -31 0
v -50 -31 0
v -50 -30 0
v -49 -30 0
v -48 -31 0
v -49 -31 0
v -49 -30 0
v -48 -30 0
v -47 -31 0
v -48 -31 0
v -48 -30 0
v -47 -30 0
v -46 -31 0
v -47 -31 0
v -47 -30 0
v -46 -30 0
v -55 -32 0
v -56 -32 0
v -56 -31 0
v -55 -31 0
v -54 -32 0
v -55 -32 0
v -55 -31 0
v -54 -31 0
v -53 -32 0
v -54 -32 0
v -54 -31 0
v -53 -31 0
v -52 -32 0
v -53 -32 0
v -53 -31 0
v -52 -31 0
v -51 -32 0
v -52 -32 0
v -52 -31 0
v -51 -31 0
v -50 -32 0
v -51 -32 0
v -51 -31 0
v -50 -31 0
v -49 -32 0
v -50 -32 0
v -50 -31 0
v -49 -31 0
v -48 -32 0
v -49 -32 0
v -49 -31 0
v -48 -31 0
v -47 -32 0
v -48 -32 0
v -48 -31 0
v -47 -31 0
v -46 -32 0
v -47 -32 0
v -47 -31 0
v -46 -31 0
v -55 -33 0
v -56 -33 0
v -56 -32 0
v -55 -32 0
v -54 -33 0
v -55 -33 0
v -55 -32 0
v -54 -32 0
v -53 -33 0
v -54 -33 0
v -54 -32 0
v -53 -32 0
v -52 -33 0
v -53 -33 0
v -53 -32 0
v -52 -32 0
v -51 -33 0
v -52 -33 0
v -52 -32 0
v -51 -32 0
v -50 -33 0
v -51 -33 0
v -51 -32 0
v -50 -32 0
v -49 -33 0
v -50 -33 0
v -50 -32 0
v -49 -32 0
v -48 -33 0
v -49 -33 0
v -49 -32 0
v -48 -32 0
v -47 -33 0
v -48 -33 0
v -48 -32 0
v -47 -32 0
v -46 -33 0
v -47 -33 0
v -47 -32 0
v -46 -32 0
v -55 -34 0
v -56 -34 0
v -56 -33 0
v -55 -33 0
v -54 -34 0
v -55 -34 0
v -55 -33 0
v -54 -33 0
v -53 -34 0
v -54 -34 0
v -54 -33 0
v -53 -33 0
v -52 -34 0
v -53 -34 0
v -53 -33 0
v -52 -33 0
v -51 -34 0
v -52 -34 0
v -52 -33 0
v -51 -33 0
v -50 -34 0
v -51 -34 0
v -51 -33 0
v -50 -33 0
v -49 -34 0
v -50 -34 0
v -50 -33 0
v -49 -33 0
v -48 -34 0
v -49 -34 0
v -49 -33 0
v -48 -33 0
v -47 -34 0
v -48 -34 0
v -48 -33 0
v -47 -33 0
v -46 -34 0
v -47 -34 0
v -47 -33 0
v -46 -33 0
v -38 -47 0
v -39 -47 0
v -39 -46 0
v -38 -46 0
v -37 -47 0
v -38 -47 0
v -38 -46 0
v -37 -46 0
v -38 -48 0
v -39 -48 0
v -39 -47 0
v -38 -47 0
v -37 -48 0
v -38 -48 0
v -38 -47 0
v -37 -47 0

# Texture cooridinates (Count = 12)
vt 0.75 0.68
vt 0.875 0.68
vt 0.875 0.7
vt 0.75 0.7
vt 0.125 0.52
vt 0.25 0.52
vt 0.25 0.54
vt 0.125 0.54
vt 0 0.56
vt 0.125 0.56
vt 0.125 0.58
vt 0 0.58

# Normal
vn 0 0 -1

# Mesh description
g BattleMapUP01_mesh_0002

# Faces
f 1/1/1 2/2/1 3/3/1 4/4/1
f 5/1/1 6/2/1 7/3/1 8/4/1
f 9/1/1 10/2/1 11/3/1 12/4/1
f 13/1/1 14/2/1 15/3/1 16/4/1
f 17/1/1 18/2/1 19/3/1 20/4/1
f 21/1/1 22/2/1 23/3/1 24/4/1
f 25/1/1 26/2/1 27/3/1 28/4/1
f 29/1/1 30/2/1 31/3/1 32/4/1
f 33/1/1 34/2/1 35/3/1 36/4/1
f 37/5/1 38/6/1 39/7/1 40/8/1
f 41/5/1 42/6/1 43/7/1 44/8/1
f 45/1/1 46/2/1 47/3/1 48/4/1
f 49/1/1 50/2/1 51/3/1 52/4/1
f 53/5/1 54/6/1 55/7/1 56/8/1
f 57/5/1 58/6/1 59/7/1 60/8/1
f 61/5/1 62/6/1 63/7/1 64/8/1
f 65/5/1 66/6/1 67/7/1 68/8/1
f 69/5/1 70/6/1 71/7/1 72/8/1
f 73/5/1 74/6/1 75/7/1 76/8/1
f 77/5/1 78/6/1 79/7/1 80/8/1
f 81/1/1 82/2/1 83/3/1 84/4/1
f 85/5/1 86/6/1 87/7/1 88/8/1
f 89/5/1 90/6/1 91/7/1 92/8/1
f 93/1/1 94/2/1 95/3/1 96/4/1
f 97/1/1 98/2/1 99/3/1 100/4/1
f 101/5/1 102/6/1 103/7/1 104/8/1
f 105/5/1 106/6/1 107/7/1 108/8/1
f 109/5/1 110/6/1 111/7/1 112/8/1
f 113/5/1 114/6/1 115/7/1 116/8/1
f 117/5/1 118/6/1 119/7/1 120/8/1
f 121/5/1 122/6/1 123/7/1 124/8/1
f 125/1/1 126/2/1 127/3/1 128/4/1
f 129/1/1 130/2/1 131/3/1 132/4/1
f 133/5/1 134/6/1 135/7/1 136/8/1
f 137/5/1 138/6/1 139/7/1 140/8/1
f 141/1/1 142/2/1 143/3/1 144/4/1
f 145/1/1 146/2/1 147/3/1 148/4/1
f 149/5/1 150/6/1 151/7/1 152/8/1
f 153/5/1 154/6/1 155/7/1 156/8/1
f 157/5/1 158/6/1 159/7/1 160/8/1
f 161/5/1 162/6/1 163/7/1 164/8/1
f 165/5/1 166/6/1 167/7/1 168/8/1
f 169/1/1 170/2/1 171/3/1 172/4/1
f 173/1/1 174/2/1 175/3/1 176/4/1
f 177/5/1 178/6/1 179/7/1 180/8/1
f 181/5/1 182/6/1 183/7/1 184/8/1
f 185/5/1 186/6/1 187/7/1 188/8/1
f 189/1/1 190/2/1 191/3/1 192/4/1
f 193/1/1 194/2/1 195/3/1 196/4/1
f 197/5/1 198/6/1 199/7/1 200/8/1
f 201/5/1 202/6/1 203/7/1 204/8/1
f 205/5/1 206/6/1 207/7/1 208/8/1
f 209/5/1 210/6/1 211/7/1 212/8/1
f 213/5/1 214/6/1 215/7/1 216/8/1
f 217/1/1 218/2/1 219/3/1 220/4/1
f 221/5/1 222/6/1 223/7/1 224/8/1
f 225/5/1 226/6/1 227/7/1 228/8/1
f 229/5/1 230/6/1 231/7/1 232/8/1
f 233/5/1 234/6/1 235/7/1 236/8/1
f 237/1/1 238/2/1 239/3/1 240/4/1
f 241/1/1 242/2/1 243/3/1 244/4/1
f 245/5/1 246/6/1 247/7/1 248/8/1
f 249/5/1 250/6/1 251/7/1 252/8/1
f 253/5/1 254/6/1 255/7/1 256/8/1
f 257/5/1 258/6/1 259/7/1 260/8/1
f 261/1/1 262/2/1 263/3/1 264/4/1
f 265/1/1 266/2/1 267/3/1 268/4/1
f 269/5/1 270/6/1 271/7/1 272/8/1
f 273/5/1 274/6/1 275/7/1 276/8/1
f 277/5/1 278/6/1 279/7/1 280/8/1
f 281/1/1 282/2/1 283/3/1 284/4/1
f 285/1/1 286/2/1 287/3/1 288/4/1
f 289/1/1 290/2/1 291/3/1 292/4/1
f 293/5/1 294/6/1 295/7/1 296/8/1
f 297/5/1 298/6/1 299/7/1 300/8/1
f 301/5/1 302/6/1 303/7/1 304/8/1
f 305/1/1 306/2/1 307/3/1 308/4/1
f 309/1/1 310/2/1 311/3/1 312/4/1
f 313/5/1 314/6/1 315/7/1 316/8/1
f 317/5/1 318/6/1 319/7/1 320/8/1
f 321/5/1 322/6/1 323/7/1 324/8/1
f 325/1/1 326/2/1 327/3/1 328/4/1
f 329/1/1 330/2/1 331/3/1 332/4/1
f 333/1/1 334/2/1 335/3/1 336/4/1
f 337/1/1 338/2/1 339/3/1 340/4/1
f 341/5/1 342/6/1 343/7/1 344/8/1
f 345/5/1 346/6/1 347/7/1 348/8/1
f 349/1/1 350/2/1 351/3/1 352/4/1
f 353/1/1 354/2/1 355/3/1 356/4/1
f 357/5/1 358/6/1 359/7/1 360/8/1
f 361/5/1 362/6/1 363/7/1 364/8/1
f 365/5/1 366/6/1 367/7/1 368/8/1
f 369/1/1 370/2/1 371/3/1 372/4/1
f 373/1/1 374/2/1 375/3/1 376/4/1
f 377/1/1 378/2/1 379/3/1 380/4/1
f 381/1/1 382/2/1 383/3/1 384/4/1
f 385/5/1 386/6/1 387/7/1 388/8/1
f 389/1/1 390/2/1 391/3/1 392/4/1
f 393/1/1 394/2/1 395/3/1 396/4/1
f 397/5/1 398/6/1 399/7/1 400/8/1
f 401/5/1 402/6/1 403/7/1 404/8/1
f 405/5/1 406/6/1 407/7/1 408/8/1
f 409/1/1 410/2/1 411/3/1 412/4/1
f 413/1/1 414/2/1 415/3/1 416/4/1
f 417/1/1 418/2/1 419/3/1 420/4/1
f 421/1/1 422/2/1 423/3/1 424/4/1
f 425/1/1 426/2/1 427/3/1 428/4/1
f 429/1/1 430/2/1 431/3/1 432/4/1
f 433/5/1 434/6/1 435/7/1 436/8/1
f 437/5/1 438/6/1 439/7/1 440/8/1
f 441/5/1 442/6/1 443/7/1 444/8/1
f 445/1/1 446/2/1 447/3/1 448/4/1
f 449/1/1 450/2/1 451/3/1 452/4/1
f 453/1/1 454/2/1 455/3/1 456/4/1
f 457/5/1 458/6/1 459/7/1 460/8/1
f 461/5/1 462/6/1 463/7/1 464/8/1
f 465/5/1 466/6/1 467/7/1 468/8/1
f 469/5/1 470/6/1 471/7/1 472/8/1
f 473/5/1 474/6/1 475/7/1 476/8/1
f 477/1/1 478/2/1 479/3/1 480/4/1
f 481/1/1 482/2/1 483/3/1 484/4/1
f 485/1/1 486/2/1 487/3/1 488/4/1
f 489/5/1 490/6/1 491/7/1 492/8/1
f 493/5/1 494/6/1 495/7/1 496/8/1
f 497/5/1 498/6/1 499/7/1 500/8/1
f 501/5/1 502/6/1 503/7/1 504/8/1
f 505/5/1 506/6/1 507/7/1 508/8/1
f 509/1/1 510/2/1 511/3/1 512/4/1
f 513/1/1 514/2/1 515/3/1 516/4/1
f 517/1/1 518/2/1 519/3/1 520/4/1
f 521/1/1 522/2/1 523/3/1 524/4/1
f 525/1/1 526/2/1 527/3/1 528/4/1
f 529/1/1 530/2/1 531/3/1 532/4/1
f 533/1/1 534/2/1 535/3/1 536/4/1
f 537/1/1 538/2/1 539/3/1 540/4/1
f 541/9/1 542/10/1 543/11/1 544/12/1
f 545/9/1 546/10/1 547/11/1 548/12/1
f 549/9/1 550/10/1 551/11/1 552/12/1
f 553/9/1 554/10/1 555/11/1 556/12/1
f 557/9/1 558/10/1 559/11/1 560/12/1
f 561/9/1 562/10/1 563/11/1 564/12/1
f 565/9/1 566/10/1 567/11/1 568/12/1
f 569/9/1 570/10/1 571/11/1 572/12/1
f 573/9/1 574/10/1 575/11/1 576/12/1
f 577/9/1 578/10/1 579/11/1 580/12/1
f 581/9/1 582/10/1 583/11/1 584/12/1
f 585/9/1 586/10/1 587/11/1 588/12/1
f 589/9/1 590/10/1 591/11/1 592/12/1
f 593/9/1 594/10/1 595/11/1 596/12/1
f 597/9/1 598/10/1 599/11/1 600/12/1
f 601/9/1 602/10/1 603/11/1 604/12/1
f 605/9/1 606/10/1 607/11/1 608/12/1
f 609/9/1 610/10/1 611/11/1 612/12/1
f 613/9/1 614/10/1 615/11/1 616/12/1
f 617/9/1 618/10/1 619/11/1 620/12/1
f 621/9/1 622/10/1 623/11/1 624/12/1
f 625/9/1 626/10/1 627/11/1 628/12/1
f 629/9/1 630/10/1 631/11/1 632/12/1
f 633/9/1 634/10/1 635/11/1 636/12/1
f 637/9/1 638/10/1 639/11/1 640/12/1
f 641/9/1 642/10/1 643/11/1 644/12/1
f 645/9/1 646/10/1 647/11/1 648/12/1
f 649/9/1 650/10/1 651/11/1 652/12/1
f 653/9/1 654/10/1 655/11/1 656/12/1
f 657/9/1 658/10/1 659/11/1 660/12/1
f 661/9/1 662/10/1 663/11/1 664/12/1
f 665/9/1 666/10/1 667/11/1 668/12/1
f 669/9/1 670/10/1 671/11/1 672/12/1
f 673/9/1 674/10/1 675/11/1 676/12/1
f 677/9/1 678/10/1 679/11/1 680/12/1
f 681/9/1 682/10/1 683/11/1 684/12/1
f 685/9/1 686/10/1 687/11/1 688/12/1
f 689/9/1 690/10/1 691/11/1 692/12/1
f 693/9/1 694/10/1 695/11/1 696/12/1
f 697/9/1 698/10/1 699/11/1 700/12/1
f 701/9/1 702/10/1 703/11/1 704/12/1
f 705/9/1 706/10/1 707/11/1 708/12/1
f 709/9/1 710/10/1 711/11/1 712/12/1
f 713/9/1 714/10/1 715/11/1 716/12/1
f 717/9/1 718/10/1 719/11/1 720/12/1
f 721/9/1 722/10/1 723/11/1 724/12/1
f 725/9/1 726/10/1 727/11/1 728/12/1
f 729/9/1 730/10/1 731/11/1 732/12/1
f 733/9/1 734/10/1 735/11/1 736/12/1
f 737/9/1 738/10/1 739/11/1 740/12/1
f 741/9/1 742/10/1 743/11/1 744/12/1
f 745/9/1 746/10/1 747/11/1 748/12/1
f 749/9/1 750/10/1 751/11/1 752/12/1
f 753/9/1 754/10/1 755/11/1 756/12/1

