# Tiled2Unity generated file. Do not modify by hand.
# Wavefront file for 'BattleMapUP01_mesh_0005.obj'

# Vertices (Count = 528)
v -61 -63 0
v -62 -63 0
v -62 -62 0
v -61 -62 0
v -60 -63 0
v -61 -63 0
v -61 -62 0
v -60 -62 0
v -59 -63 0
v -60 -63 0
v -60 -62 0
v -59 -62 0
v -58 -63 0
v -59 -63 0
v -59 -62 0
v -58 -62 0
v -57 -63 0
v -58 -63 0
v -58 -62 0
v -57 -62 0
v -56 -63 0
v -57 -63 0
v -57 -62 0
v -56 -62 0
v -55 -63 0
v -56 -63 0
v -56 -62 0
v -55 -62 0
v -54 -63 0
v -55 -63 0
v -55 -62 0
v -54 -62 0
v -53 -63 0
v -54 -63 0
v -54 -62 0
v -53 -62 0
v -52 -63 0
v -53 -63 0
v -53 -62 0
v -52 -62 0
v -51 -63 0
v -52 -63 0
v -52 -62 0
v -51 -62 0
v -50 -63 0
v -51 -63 0
v -51 -62 0
v -50 -62 0
v -49 -63 0
v -50 -63 0
v -50 -62 0
v -49 -62 0
v -48 -63 0
v -49 -63 0
v -49 -62 0
v -48 -62 0
v -47 -63 0
v -48 -63 0
v -48 -62 0
v -47 -62 0
v -46 -63 0
v -47 -63 0
v -47 -62 0
v -46 -62 0
v -45 -63 0
v -46 -63 0
v -46 -62 0
v -45 -62 0
v -44 -63 0
v -45 -63 0
v -45 -62 0
v -44 -62 0
v -43 -63 0
v -44 -63 0
v -44 -62 0
v -43 -62 0
v -42 -63 0
v -43 -63 0
v -43 -62 0
v -42 -62 0
v -41 -63 0
v -42 -63 0
v -42 -62 0
v -41 -62 0
v -40 -63 0
v -41 -63 0
v -41 -62 0
v -40 -62 0
v -35 -63 0
v -36 -63 0
v -36 -62 0
v -35 -62 0
v -34 -63 0
v -35 -63 0
v -35 -62 0
v -34 -62 0
v -33 -63 0
v -34 -63 0
v -34 -62 0
v -33 -62 0
v -32 -63 0
v -33 -63 0
v -33 -62 0
v -32 -62 0
v -31 -63 0
v -32 -63 0
v -32 -62 0
v -31 -62 0
v -30 -63 0
v -31 -63 0
v -31 -62 0
v -30 -62 0
v -29 -63 0
v -30 -63 0
v -30 -62 0
v -29 -62 0
v -28 -63 0
v -29 -63 0
v -29 -62 0
v -28 -62 0
v -27 -63 0
v -28 -63 0
v -28 -62 0
v -27 -62 0
v -26 -63 0
v -27 -63 0
v -27 -62 0
v -26 -62 0
v -25 -63 0
v -26 -63 0
v -26 -62 0
v -25 -62 0
v -24 -63 0
v -25 -63 0
v -25 -62 0
v -24 -62 0
v -23 -63 0
v -24 -63 0
v -24 -62 0
v -23 -62 0
v -22 -63 0
v -23 -63 0
v -23 -62 0
v -22 -62 0
v -21 -63 0
v -22 -63 0
v -22 -62 0
v -21 -62 0
v -20 -63 0
v -21 -63 0
v -21 -62 0
v -20 -62 0
v -19 -63 0
v -20 -63 0
v -20 -62 0
v -19 -62 0
v -18 -63 0
v -19 -63 0
v -19 -62 0
v -18 -62 0
v -17 -63 0
v -18 -63 0
v -18 -62 0
v -17 -62 0
v -16 -63 0
v -17 -63 0
v -17 -62 0
v -16 -62 0
v -15 -63 0
v -16 -63 0
v -16 -62 0
v -15 -62 0
v -14 -63 0
v -15 -63 0
v -15 -62 0
v -14 -62 0
v -61 -64 0
v -62 -64 0
v -62 -63 0
v -61 -63 0
v -60 -64 0
v -61 -64 0
v -61 -63 0
v -60 -63 0
v -59 -64 0
v -60 -64 0
v -60 -63 0
v -59 -63 0
v -58 -64 0
v -59 -64 0
v -59 -63 0
v -58 -63 0
v -57 -64 0
v -58 -64 0
v -58 -63 0
v -57 -63 0
v -56 -64 0
v -57 -64 0
v -57 -63 0
v -56 -63 0
v -55 -64 0
v -56 -64 0
v -56 -63 0
v -55 -63 0
v -54 -64 0
v -55 -64 0
v -55 -63 0
v -54 -63 0
v -53 -64 0
v -54 -64 0
v -54 -63 0
v -53 -63 0
v -52 -64 0
v -53 -64 0
v -53 -63 0
v -52 -63 0
v -51 -64 0
v -52 -64 0
v -52 -63 0
v -51 -63 0
v -50 -64 0
v -51 -64 0
v -51 -63 0
v -50 -63 0
v -49 -64 0
v -50 -64 0
v -50 -63 0
v -49 -63 0
v -48 -64 0
v -49 -64 0
v -49 -63 0
v -48 -63 0
v -47 -64 0
v -48 -64 0
v -48 -63 0
v -47 -63 0
v -46 -64 0
v -47 -64 0
v -47 -63 0
v -46 -63 0
v -45 -64 0
v -46 -64 0
v -46 -63 0
v -45 -63 0
v -44 -64 0
v -45 -64 0
v -45 -63 0
v -44 -63 0
v -43 -64 0
v -44 -64 0
v -44 -63 0
v -43 -63 0
v -42 -64 0
v -43 -64 0
v -43 -63 0
v -42 -63 0
v -41 -64 0
v -42 -64 0
v -42 -63 0
v -41 -63 0
v -40 -64 0
v -41 -64 0
v -41 -63 0
v -40 -63 0
v -35 -64 0
v -36 -64 0
v -36 -63 0
v -35 -63 0
v -34 -64 0
v -35 -64 0
v -35 -63 0
v -34 -63 0
v -33 -64 0
v -34 -64 0
v -34 -63 0
v -33 -63 0
v -32 -64 0
v -33 -64 0
v -33 -63 0
v -32 -63 0
v -31 -64 0
v -32 -64 0
v -32 -63 0
v -31 -63 0
v -30 -64 0
v -31 -64 0
v -31 -63 0
v -30 -63 0
v -29 -64 0
v -30 -64 0
v -30 -63 0
v -29 -63 0
v -28 -64 0
v -29 -64 0
v -29 -63 0
v -28 -63 0
v -27 -64 0
v -28 -64 0
v -28 -63 0
v -27 -63 0
v -26 -64 0
v -27 -64 0
v -27 -63 0
v -26 -63 0
v -25 -64 0
v -26 -64 0
v -26 -63 0
v -25 -63 0
v -24 -64 0
v -25 -64 0
v -25 -63 0
v -24 -63 0
v -23 -64 0
v -24 -64 0
v -24 -63 0
v -23 -63 0
v -22 -64 0
v -23 -64 0
v -23 -63 0
v -22 -63 0
v -21 -64 0
v -22 -64 0
v -22 -63 0
v -21 -63 0
v -20 -64 0
v -21 -64 0
v -21 -63 0
v -20 -63 0
v -19 -64 0
v -20 -64 0
v -20 -63 0
v -19 -63 0
v -18 -64 0
v -19 -64 0
v -19 -63 0
v -18 -63 0
v -17 -64 0
v -18 -64 0
v -18 -63 0
v -17 -63 0
v -16 -64 0
v -17 -64 0
v -17 -63 0
v -16 -63 0
v -15 -64 0
v -16 -64 0
v -16 -63 0
v -15 -63 0
v -14 -64 0
v -15 -64 0
v -15 -63 0
v -14 -63 0
v -61 -65 0
v -62 -65 0
v -62 -64 0
v -61 -64 0
v -60 -65 0
v -61 -65 0
v -61 -64 0
v -60 -64 0
v -59 -65 0
v -60 -65 0
v -60 -64 0
v -59 -64 0
v -58 -65 0
v -59 -65 0
v -59 -64 0
v -58 -64 0
v -57 -65 0
v -58 -65 0
v -58 -64 0
v -57 -64 0
v -56 -65 0
v -57 -65 0
v -57 -64 0
v -56 -64 0
v -55 -65 0
v -56 -65 0
v -56 -64 0
v -55 -64 0
v -54 -65 0
v -55 -65 0
v -55 -64 0
v -54 -64 0
v -53 -65 0
v -54 -65 0
v -54 -64 0
v -53 -64 0
v -52 -65 0
v -53 -65 0
v -53 -64 0
v -52 -64 0
v -51 -65 0
v -52 -65 0
v -52 -64 0
v -51 -64 0
v -50 -65 0
v -51 -65 0
v -51 -64 0
v -50 -64 0
v -49 -65 0
v -50 -65 0
v -50 -64 0
v -49 -64 0
v -48 -65 0
v -49 -65 0
v -49 -64 0
v -48 -64 0
v -47 -65 0
v -48 -65 0
v -48 -64 0
v -47 -64 0
v -46 -65 0
v -47 -65 0
v -47 -64 0
v -46 -64 0
v -45 -65 0
v -46 -65 0
v -46 -64 0
v -45 -64 0
v -44 -65 0
v -45 -65 0
v -45 -64 0
v -44 -64 0
v -43 -65 0
v -44 -65 0
v -44 -64 0
v -43 -64 0
v -42 -65 0
v -43 -65 0
v -43 -64 0
v -42 -64 0
v -41 -65 0
v -42 -65 0
v -42 -64 0
v -41 -64 0
v -40 -65 0
v -41 -65 0
v -41 -64 0
v -40 -64 0
v -35 -65 0
v -36 -65 0
v -36 -64 0
v -35 -64 0
v -34 -65 0
v -35 -65 0
v -35 -64 0
v -34 -64 0
v -33 -65 0
v -34 -65 0
v -34 -64 0
v -33 -64 0
v -32 -65 0
v -33 -65 0
v -33 -64 0
v -32 -64 0
v -31 -65 0
v -32 -65 0
v -32 -64 0
v -31 -64 0
v -30 -65 0
v -31 -65 0
v -31 -64 0
v -30 -64 0
v -29 -65 0
v -30 -65 0
v -30 -64 0
v -29 -64 0
v -28 -65 0
v -29 -65 0
v -29 -64 0
v -28 -64 0
v -27 -65 0
v -28 -65 0
v -28 -64 0
v -27 -64 0
v -26 -65 0
v -27 -65 0
v -27 -64 0
v -26 -64 0
v -25 -65 0
v -26 -65 0
v -26 -64 0
v -25 -64 0
v -24 -65 0
v -25 -65 0
v -25 -64 0
v -24 -64 0
v -23 -65 0
v -24 -65 0
v -24 -64 0
v -23 -64 0
v -22 -65 0
v -23 -65 0
v -23 -64 0
v -22 -64 0
v -21 -65 0
v -22 -65 0
v -22 -64 0
v -21 -64 0
v -20 -65 0
v -21 -65 0
v -21 -64 0
v -20 -64 0
v -19 -65 0
v -20 -65 0
v -20 -64 0
v -19 -64 0
v -18 -65 0
v -19 -65 0
v -19 -64 0
v -18 -64 0
v -17 -65 0
v -18 -65 0
v -18 -64 0
v -17 -64 0
v -16 -65 0
v -17 -65 0
v -17 -64 0
v -16 -64 0
v -15 -65 0
v -16 -65 0
v -16 -64 0
v -15 -64 0
v -14 -65 0
v -15 -65 0
v -15 -64 0
v -14 -64 0

# Texture cooridinates (Count = 12)
vt 0.75 0.66
vt 0.875 0.66
vt 0.875 0.68
vt 0.75 0.68
vt 0.625 0.66
vt 0.625 0.68
vt 0.75 0.64
vt 0.875 0.64
vt 0.625 0.64
vt 0.75 0.62
vt 0.875 0.62
vt 0.625 0.62

# Normal
vn 0 0 -1

# Mesh description
g BattleMapUP01_mesh_0005

# Faces
f 1/1/1 2/2/1 3/3/1 4/4/1
f 5/5/1 6/1/1 7/4/1 8/6/1
f 9/1/1 10/2/1 11/3/1 12/4/1
f 13/5/1 14/1/1 15/4/1 16/6/1
f 17/1/1 18/2/1 19/3/1 20/4/1
f 21/5/1 22/1/1 23/4/1 24/6/1
f 25/1/1 26/2/1 27/3/1 28/4/1
f 29/5/1 30/1/1 31/4/1 32/6/1
f 33/1/1 34/2/1 35/3/1 36/4/1
f 37/5/1 38/1/1 39/4/1 40/6/1
f 41/1/1 42/2/1 43/3/1 44/4/1
f 45/5/1 46/1/1 47/4/1 48/6/1
f 49/1/1 50/2/1 51/3/1 52/4/1
f 53/5/1 54/1/1 55/4/1 56/6/1
f 57/1/1 58/2/1 59/3/1 60/4/1
f 61/5/1 62/1/1 63/4/1 64/6/1
f 65/1/1 66/2/1 67/3/1 68/4/1
f 69/5/1 70/1/1 71/4/1 72/6/1
f 73/1/1 74/2/1 75/3/1 76/4/1
f 77/5/1 78/1/1 79/4/1 80/6/1
f 81/1/1 82/2/1 83/3/1 84/4/1
f 85/5/1 86/1/1 87/4/1 88/6/1
f 89/1/1 90/2/1 91/3/1 92/4/1
f 93/5/1 94/1/1 95/4/1 96/6/1
f 97/1/1 98/2/1 99/3/1 100/4/1
f 101/5/1 102/1/1 103/4/1 104/6/1
f 105/1/1 106/2/1 107/3/1 108/4/1
f 109/5/1 110/1/1 111/4/1 112/6/1
f 113/1/1 114/2/1 115/3/1 116/4/1
f 117/5/1 118/1/1 119/4/1 120/6/1
f 121/1/1 122/2/1 123/3/1 124/4/1
f 125/5/1 126/1/1 127/4/1 128/6/1
f 129/1/1 130/2/1 131/3/1 132/4/1
f 133/5/1 134/1/1 135/4/1 136/6/1
f 137/1/1 138/2/1 139/3/1 140/4/1
f 141/5/1 142/1/1 143/4/1 144/6/1
f 145/1/1 146/2/1 147/3/1 148/4/1
f 149/5/1 150/1/1 151/4/1 152/6/1
f 153/1/1 154/2/1 155/3/1 156/4/1
f 157/5/1 158/1/1 159/4/1 160/6/1
f 161/1/1 162/2/1 163/3/1 164/4/1
f 165/5/1 166/1/1 167/4/1 168/6/1
f 169/1/1 170/2/1 171/3/1 172/4/1
f 173/5/1 174/1/1 175/4/1 176/6/1
f 177/7/1 178/8/1 179/2/1 180/1/1
f 181/9/1 182/7/1 183/1/1 184/5/1
f 185/7/1 186/8/1 187/2/1 188/1/1
f 189/9/1 190/7/1 191/1/1 192/5/1
f 193/7/1 194/8/1 195/2/1 196/1/1
f 197/9/1 198/7/1 199/1/1 200/5/1
f 201/7/1 202/8/1 203/2/1 204/1/1
f 205/9/1 206/7/1 207/1/1 208/5/1
f 209/7/1 210/8/1 211/2/1 212/1/1
f 213/9/1 214/7/1 215/1/1 216/5/1
f 217/7/1 218/8/1 219/2/1 220/1/1
f 221/9/1 222/7/1 223/1/1 224/5/1
f 225/7/1 226/8/1 227/2/1 228/1/1
f 229/9/1 230/7/1 231/1/1 232/5/1
f 233/7/1 234/8/1 235/2/1 236/1/1
f 237/9/1 238/7/1 239/1/1 240/5/1
f 241/7/1 242/8/1 243/2/1 244/1/1
f 245/9/1 246/7/1 247/1/1 248/5/1
f 249/7/1 250/8/1 251/2/1 252/1/1
f 253/9/1 254/7/1 255/1/1 256/5/1
f 257/7/1 258/8/1 259/2/1 260/1/1
f 261/9/1 262/7/1 263/1/1 264/5/1
f 265/7/1 266/8/1 267/2/1 268/1/1
f 269/9/1 270/7/1 271/1/1 272/5/1
f 273/7/1 274/8/1 275/2/1 276/1/1
f 277/9/1 278/7/1 279/1/1 280/5/1
f 281/7/1 282/8/1 283/2/1 284/1/1
f 285/9/1 286/7/1 287/1/1 288/5/1
f 289/7/1 290/8/1 291/2/1 292/1/1
f 293/9/1 294/7/1 295/1/1 296/5/1
f 297/7/1 298/8/1 299/2/1 300/1/1
f 301/9/1 302/7/1 303/1/1 304/5/1
f 305/7/1 306/8/1 307/2/1 308/1/1
f 309/9/1 310/7/1 311/1/1 312/5/1
f 313/7/1 314/8/1 315/2/1 316/1/1
f 317/9/1 318/7/1 319/1/1 320/5/1
f 321/7/1 322/8/1 323/2/1 324/1/1
f 325/9/1 326/7/1 327/1/1 328/5/1
f 329/7/1 330/8/1 331/2/1 332/1/1
f 333/9/1 334/7/1 335/1/1 336/5/1
f 337/7/1 338/8/1 339/2/1 340/1/1
f 341/9/1 342/7/1 343/1/1 344/5/1
f 345/7/1 346/8/1 347/2/1 348/1/1
f 349/9/1 350/7/1 351/1/1 352/5/1
f 353/10/1 354/11/1 355/8/1 356/7/1
f 357/12/1 358/10/1 359/7/1 360/9/1
f 361/10/1 362/11/1 363/8/1 364/7/1
f 365/12/1 366/10/1 367/7/1 368/9/1
f 369/10/1 370/11/1 371/8/1 372/7/1
f 373/12/1 374/10/1 375/7/1 376/9/1
f 377/10/1 378/11/1 379/8/1 380/7/1
f 381/12/1 382/10/1 383/7/1 384/9/1
f 385/10/1 386/11/1 387/8/1 388/7/1
f 389/12/1 390/10/1 391/7/1 392/9/1
f 393/10/1 394/11/1 395/8/1 396/7/1
f 397/12/1 398/10/1 399/7/1 400/9/1
f 401/10/1 402/11/1 403/8/1 404/7/1
f 405/12/1 406/10/1 407/7/1 408/9/1
f 409/10/1 410/11/1 411/8/1 412/7/1
f 413/12/1 414/10/1 415/7/1 416/9/1
f 417/10/1 418/11/1 419/8/1 420/7/1
f 421/12/1 422/10/1 423/7/1 424/9/1
f 425/10/1 426/11/1 427/8/1 428/7/1
f 429/12/1 430/10/1 431/7/1 432/9/1
f 433/10/1 434/11/1 435/8/1 436/7/1
f 437/12/1 438/10/1 439/7/1 440/9/1
f 441/10/1 442/11/1 443/8/1 444/7/1
f 445/12/1 446/10/1 447/7/1 448/9/1
f 449/10/1 450/11/1 451/8/1 452/7/1
f 453/12/1 454/10/1 455/7/1 456/9/1
f 457/10/1 458/11/1 459/8/1 460/7/1
f 461/12/1 462/10/1 463/7/1 464/9/1
f 465/10/1 466/11/1 467/8/1 468/7/1
f 469/12/1 470/10/1 471/7/1 472/9/1
f 473/10/1 474/11/1 475/8/1 476/7/1
f 477/12/1 478/10/1 479/7/1 480/9/1
f 481/10/1 482/11/1 483/8/1 484/7/1
f 485/12/1 486/10/1 487/7/1 488/9/1
f 489/10/1 490/11/1 491/8/1 492/7/1
f 493/12/1 494/10/1 495/7/1 496/9/1
f 497/10/1 498/11/1 499/8/1 500/7/1
f 501/12/1 502/10/1 503/7/1 504/9/1
f 505/10/1 506/11/1 507/8/1 508/7/1
f 509/12/1 510/10/1 511/7/1 512/9/1
f 513/10/1 514/11/1 515/8/1 516/7/1
f 517/12/1 518/10/1 519/7/1 520/9/1
f 521/10/1 522/11/1 523/8/1 524/7/1
f 525/12/1 526/10/1 527/7/1 528/9/1

