# Tiled2Unity generated file. Do not modify by hand.
# Wavefront file for 'BattleMapDown01_mesh_0004.obj'

# Vertices (Count = 16)
v -61 -7 0
v -62 -7 0
v -62 -6 0
v -61 -6 0
v -60 -7 0
v -61 -7 0
v -61 -6 0
v -60 -6 0
v -11 -7 0
v -12 -7 0
v -12 -6 0
v -11 -6 0
v -10 -7 0
v -11 -7 0
v -11 -6 0
v -10 -6 0

# Texture cooridinates (Count = 6)
vt 0.75 0.62
vt 0.875 0.62
vt 0.875 0.64
vt 0.75 0.64
vt 0.625 0.62
vt 0.625 0.64

# Normal
vn 0 0 -1

# Mesh description
g BattleMapDown01_mesh_0004

# Faces
f 1/1/1 2/2/1 3/3/1 4/4/1
f 5/5/1 6/1/1 7/4/1 8/6/1
f 9/1/1 10/2/1 11/3/1 12/4/1
f 13/5/1 14/1/1 15/4/1 16/6/1

