# Tiled2Unity generated file. Do not modify by hand.
# Wavefront file for 'Map01_mesh_0006.obj'

# Vertices (Count = 376)
v -59 -26 0
v -60 -26 0
v -60 -25 0
v -59 -25 0
v -58 -26 0
v -59 -26 0
v -59 -25 0
v -58 -25 0
v -57 -26 0
v -58 -26 0
v -58 -25 0
v -57 -25 0
v -56 -26 0
v -57 -26 0
v -57 -25 0
v -56 -25 0
v -55 -26 0
v -56 -26 0
v -56 -25 0
v -55 -25 0
v -41 -26 0
v -42 -26 0
v -42 -25 0
v -41 -25 0
v -40 -26 0
v -41 -26 0
v -41 -25 0
v -40 -25 0
v -39 -26 0
v -40 -26 0
v -40 -25 0
v -39 -25 0
v -59 -27 0
v -60 -27 0
v -60 -26 0
v -59 -26 0
v -58 -27 0
v -59 -27 0
v -59 -26 0
v -58 -26 0
v -57 -27 0
v -58 -27 0
v -58 -26 0
v -57 -26 0
v -56 -27 0
v -57 -27 0
v -57 -26 0
v -56 -26 0
v -55 -27 0
v -56 -27 0
v -56 -26 0
v -55 -26 0
v -41 -27 0
v -42 -27 0
v -42 -26 0
v -41 -26 0
v -40 -27 0
v -41 -27 0
v -41 -26 0
v -40 -26 0
v -39 -27 0
v -40 -27 0
v -40 -26 0
v -39 -26 0
v -59 -28 0
v -60 -28 0
v -60 -27 0
v -59 -27 0
v -58 -28 0
v -59 -28 0
v -59 -27 0
v -58 -27 0
v -40 -28 0
v -41 -28 0
v -41 -27 0
v -40 -27 0
v -39 -28 0
v -40 -28 0
v -40 -27 0
v -39 -27 0
v -59 -29 0
v -60 -29 0
v -60 -28 0
v -59 -28 0
v -58 -29 0
v -59 -29 0
v -59 -28 0
v -58 -28 0
v -40 -29 0
v -41 -29 0
v -41 -28 0
v -40 -28 0
v -39 -29 0
v -40 -29 0
v -40 -28 0
v -39 -28 0
v -59 -30 0
v -60 -30 0
v -60 -29 0
v -59 -29 0
v -58 -30 0
v -59 -30 0
v -59 -29 0
v -58 -29 0
v -40 -30 0
v -41 -30 0
v -41 -29 0
v -40 -29 0
v -39 -30 0
v -40 -30 0
v -40 -29 0
v -39 -29 0
v -59 -31 0
v -60 -31 0
v -60 -30 0
v -59 -30 0
v -58 -31 0
v -59 -31 0
v -59 -30 0
v -58 -30 0
v -40 -31 0
v -41 -31 0
v -41 -30 0
v -40 -30 0
v -39 -31 0
v -40 -31 0
v -40 -30 0
v -39 -30 0
v -59 -32 0
v -60 -32 0
v -60 -31 0
v -59 -31 0
v -58 -32 0
v -59 -32 0
v -59 -31 0
v -58 -31 0
v -40 -32 0
v -41 -32 0
v -41 -31 0
v -40 -31 0
v -39 -32 0
v -40 -32 0
v -40 -31 0
v -39 -31 0
v -59 -33 0
v -60 -33 0
v -60 -32 0
v -59 -32 0
v -58 -33 0
v -59 -33 0
v -59 -32 0
v -58 -32 0
v -40 -33 0
v -41 -33 0
v -41 -32 0
v -40 -32 0
v -39 -33 0
v -40 -33 0
v -40 -32 0
v -39 -32 0
v -59 -34 0
v -60 -34 0
v -60 -33 0
v -59 -33 0
v -58 -34 0
v -59 -34 0
v -59 -33 0
v -58 -33 0
v -40 -34 0
v -41 -34 0
v -41 -33 0
v -40 -33 0
v -39 -34 0
v -40 -34 0
v -40 -33 0
v -39 -33 0
v -59 -35 0
v -60 -35 0
v -60 -34 0
v -59 -34 0
v -58 -35 0
v -59 -35 0
v -59 -34 0
v -58 -34 0
v -40 -35 0
v -41 -35 0
v -41 -34 0
v -40 -34 0
v -39 -35 0
v -40 -35 0
v -40 -34 0
v -39 -34 0
v -59 -36 0
v -60 -36 0
v -60 -35 0
v -59 -35 0
v -58 -36 0
v -59 -36 0
v -59 -35 0
v -58 -35 0
v -40 -36 0
v -41 -36 0
v -41 -35 0
v -40 -35 0
v -39 -36 0
v -40 -36 0
v -40 -35 0
v -39 -35 0
v -59 -37 0
v -60 -37 0
v -60 -36 0
v -59 -36 0
v -58 -37 0
v -59 -37 0
v -59 -36 0
v -58 -36 0
v -40 -37 0
v -41 -37 0
v -41 -36 0
v -40 -36 0
v -39 -37 0
v -40 -37 0
v -40 -36 0
v -39 -36 0
v -59 -38 0
v -60 -38 0
v -60 -37 0
v -59 -37 0
v -58 -38 0
v -59 -38 0
v -59 -37 0
v -58 -37 0
v -57 -38 0
v -58 -38 0
v -58 -37 0
v -57 -37 0
v -56 -38 0
v -57 -38 0
v -57 -37 0
v -56 -37 0
v -55 -38 0
v -56 -38 0
v -56 -37 0
v -55 -37 0
v -54 -38 0
v -55 -38 0
v -55 -37 0
v -54 -37 0
v -53 -38 0
v -54 -38 0
v -54 -37 0
v -53 -37 0
v -52 -38 0
v -53 -38 0
v -53 -37 0
v -52 -37 0
v -51 -38 0
v -52 -38 0
v -52 -37 0
v -51 -37 0
v -50 -38 0
v -51 -38 0
v -51 -37 0
v -50 -37 0
v -49 -38 0
v -50 -38 0
v -50 -37 0
v -49 -37 0
v -48 -38 0
v -49 -38 0
v -49 -37 0
v -48 -37 0
v -47 -38 0
v -48 -38 0
v -48 -37 0
v -47 -37 0
v -44 -38 0
v -45 -38 0
v -45 -37 0
v -44 -37 0
v -43 -38 0
v -44 -38 0
v -44 -37 0
v -43 -37 0
v -42 -38 0
v -43 -38 0
v -43 -37 0
v -42 -37 0
v -41 -38 0
v -42 -38 0
v -42 -37 0
v -41 -37 0
v -40 -38 0
v -41 -38 0
v -41 -37 0
v -40 -37 0
v -39 -38 0
v -40 -38 0
v -40 -37 0
v -39 -37 0
v -59 -39 0
v -60 -39 0
v -60 -38 0
v -59 -38 0
v -58 -39 0
v -59 -39 0
v -59 -38 0
v -58 -38 0
v -57 -39 0
v -58 -39 0
v -58 -38 0
v -57 -38 0
v -56 -39 0
v -57 -39 0
v -57 -38 0
v -56 -38 0
v -55 -39 0
v -56 -39 0
v -56 -38 0
v -55 -38 0
v -54 -39 0
v -55 -39 0
v -55 -38 0
v -54 -38 0
v -53 -39 0
v -54 -39 0
v -54 -38 0
v -53 -38 0
v -52 -39 0
v -53 -39 0
v -53 -38 0
v -52 -38 0
v -51 -39 0
v -52 -39 0
v -52 -38 0
v -51 -38 0
v -50 -39 0
v -51 -39 0
v -51 -38 0
v -50 -38 0
v -49 -39 0
v -50 -39 0
v -50 -38 0
v -49 -38 0
v -48 -39 0
v -49 -39 0
v -49 -38 0
v -48 -38 0
v -47 -39 0
v -48 -39 0
v -48 -38 0
v -47 -38 0
v -44 -39 0
v -45 -39 0
v -45 -38 0
v -44 -38 0
v -43 -39 0
v -44 -39 0
v -44 -38 0
v -43 -38 0
v -42 -39 0
v -43 -39 0
v -43 -38 0
v -42 -38 0
v -41 -39 0
v -42 -39 0
v -42 -38 0
v -41 -38 0
v -40 -39 0
v -41 -39 0
v -41 -38 0
v -40 -38 0
v -39 -39 0
v -40 -39 0
v -40 -38 0
v -39 -38 0

# Texture cooridinates (Count = 26)
vt 0.71875 0.8333333
vt 0.75 0.8333333
vt 0.75 0.875
vt 0.71875 0.875
vt 0.65625 0.7916667
vt 0.6875 0.7916667
vt 0.6875 0.8333333
vt 0.65625 0.8333333
vt 0.65625 0.875
vt 0.6875 0.875
vt 0.6875 0.9166667
vt 0.65625 0.9166667
vt 0.625 0.8333333
vt 0.625 0.875
vt 0.65625 0.75
vt 0.6875 0.75
vt 0.65625 0.9583333
vt 0.6875 0.9583333
vt 0.6875 1
vt 0.65625 1
vt 0.71875 0.7916667
vt 0.75 0.7916667
vt 0.625 0.7916667
vt 0.71875 0.75
vt 0.75 0.75
vt 0.625 0.75

# Normal
vn 0 0 -1

# Mesh description
g Map01_mesh_0006

# Faces
f 1/1/1 2/2/1 3/3/1 4/4/1
f 5/5/1 6/6/1 7/7/1 8/8/1
f 9/5/1 10/6/1 11/7/1 12/8/1
f 13/5/1 14/6/1 15/7/1 16/8/1
f 17/5/1 18/6/1 19/7/1 20/8/1
f 21/5/1 22/6/1 23/7/1 24/8/1
f 25/9/1 26/10/1 27/11/1 28/12/1
f 29/13/1 30/8/1 31/9/1 32/14/1
f 33/1/1 34/2/1 35/3/1 36/4/1
f 37/7/1 38/1/1 39/4/1 40/10/1
f 41/15/1 42/16/1 43/6/1 44/5/1
f 45/15/1 46/16/1 47/6/1 48/5/1
f 49/15/1 50/16/1 51/6/1 52/5/1
f 53/15/1 54/16/1 55/6/1 56/5/1
f 57/8/1 58/7/1 59/10/1 60/9/1
f 61/13/1 62/8/1 63/9/1 64/14/1
f 65/1/1 66/2/1 67/3/1 68/4/1
f 69/13/1 70/8/1 71/9/1 72/14/1
f 73/17/1 74/18/1 75/19/1 76/20/1
f 77/13/1 78/8/1 79/9/1 80/14/1
f 81/1/1 82/2/1 83/3/1 84/4/1
f 85/13/1 86/8/1 87/9/1 88/14/1
f 89/17/1 90/18/1 91/19/1 92/20/1
f 93/13/1 94/8/1 95/9/1 96/14/1
f 97/1/1 98/2/1 99/3/1 100/4/1
f 101/13/1 102/8/1 103/9/1 104/14/1
f 105/17/1 106/18/1 107/19/1 108/20/1
f 109/13/1 110/8/1 111/9/1 112/14/1
f 113/1/1 114/2/1 115/3/1 116/4/1
f 117/13/1 118/8/1 119/9/1 120/14/1
f 121/17/1 122/18/1 123/19/1 124/20/1
f 125/13/1 126/8/1 127/9/1 128/14/1
f 129/1/1 130/2/1 131/3/1 132/4/1
f 133/13/1 134/8/1 135/9/1 136/14/1
f 137/17/1 138/18/1 139/19/1 140/20/1
f 141/13/1 142/8/1 143/9/1 144/14/1
f 145/1/1 146/2/1 147/3/1 148/4/1
f 149/13/1 150/8/1 151/9/1 152/14/1
f 153/17/1 154/18/1 155/19/1 156/20/1
f 157/13/1 158/8/1 159/9/1 160/14/1
f 161/1/1 162/2/1 163/3/1 164/4/1
f 165/13/1 166/8/1 167/9/1 168/14/1
f 169/17/1 170/18/1 171/19/1 172/20/1
f 173/13/1 174/8/1 175/9/1 176/14/1
f 177/1/1 178/2/1 179/3/1 180/4/1
f 181/13/1 182/8/1 183/9/1 184/14/1
f 185/17/1 186/18/1 187/19/1 188/20/1
f 189/13/1 190/8/1 191/9/1 192/14/1
f 193/1/1 194/2/1 195/3/1 196/4/1
f 197/13/1 198/8/1 199/9/1 200/14/1
f 201/17/1 202/18/1 203/19/1 204/20/1
f 205/13/1 206/8/1 207/9/1 208/14/1
f 209/1/1 210/2/1 211/3/1 212/4/1
f 213/13/1 214/8/1 215/9/1 216/14/1
f 217/17/1 218/18/1 219/19/1 220/20/1
f 221/13/1 222/8/1 223/9/1 224/14/1
f 225/21/1 226/22/1 227/2/1 228/1/1
f 229/5/1 230/6/1 231/7/1 232/8/1
f 233/5/1 234/6/1 235/7/1 236/8/1
f 237/5/1 238/6/1 239/7/1 240/8/1
f 241/5/1 242/6/1 243/7/1 244/8/1
f 245/5/1 246/6/1 247/7/1 248/8/1
f 249/5/1 250/6/1 251/7/1 252/8/1
f 253/5/1 254/6/1 255/7/1 256/8/1
f 257/5/1 258/6/1 259/7/1 260/8/1
f 261/5/1 262/6/1 263/7/1 264/8/1
f 265/5/1 266/6/1 267/7/1 268/8/1
f 269/5/1 270/6/1 271/7/1 272/8/1
f 273/23/1 274/5/1 275/8/1 276/13/1
f 277/17/1 278/18/1 279/19/1 280/20/1
f 281/5/1 282/6/1 283/7/1 284/8/1
f 285/5/1 286/6/1 287/7/1 288/8/1
f 289/5/1 290/6/1 291/7/1 292/8/1
f 293/5/1 294/6/1 295/7/1 296/8/1
f 297/23/1 298/5/1 299/8/1 300/13/1
f 301/24/1 302/25/1 303/22/1 304/21/1
f 305/15/1 306/16/1 307/6/1 308/5/1
f 309/15/1 310/16/1 311/6/1 312/5/1
f 313/15/1 314/16/1 315/6/1 316/5/1
f 317/15/1 318/16/1 319/6/1 320/5/1
f 321/15/1 322/16/1 323/6/1 324/5/1
f 325/15/1 326/16/1 327/6/1 328/5/1
f 329/15/1 330/16/1 331/6/1 332/5/1
f 333/15/1 334/16/1 335/6/1 336/5/1
f 337/15/1 338/16/1 339/6/1 340/5/1
f 341/15/1 342/16/1 343/6/1 344/5/1
f 345/15/1 346/16/1 347/6/1 348/5/1
f 349/26/1 350/15/1 351/5/1 352/23/1
f 353/12/1 354/11/1 355/18/1 356/17/1
f 357/15/1 358/16/1 359/6/1 360/5/1
f 361/15/1 362/16/1 363/6/1 364/5/1
f 365/15/1 366/16/1 367/6/1 368/5/1
f 369/15/1 370/16/1 371/6/1 372/5/1
f 373/26/1 374/15/1 375/5/1 376/23/1

