# Tiled2Unity generated file. Do not modify by hand.
# Wavefront file for 'Map01_mesh_0005.obj'

# Vertices (Count = 332)
v -56 -29 0
v -57 -29 0
v -57 -28 0
v -56 -28 0
v -46 -29 0
v -47 -29 0
v -47 -28 0
v -46 -28 0
v -45 -29 0
v -46 -29 0
v -46 -28 0
v -45 -28 0
v -44 -29 0
v -45 -29 0
v -45 -28 0
v -44 -28 0
v -43 -29 0
v -44 -29 0
v -44 -28 0
v -43 -28 0
v -56 -30 0
v -57 -30 0
v -57 -29 0
v -56 -29 0
v -54 -30 0
v -55 -30 0
v -55 -29 0
v -54 -29 0
v -53 -30 0
v -54 -30 0
v -54 -29 0
v -53 -29 0
v -52 -30 0
v -53 -30 0
v -53 -29 0
v -52 -29 0
v -51 -30 0
v -52 -30 0
v -52 -29 0
v -51 -29 0
v -50 -30 0
v -51 -30 0
v -51 -29 0
v -50 -29 0
v -49 -30 0
v -50 -30 0
v -50 -29 0
v -49 -29 0
v -48 -30 0
v -49 -30 0
v -49 -29 0
v -48 -29 0
v -47 -30 0
v -48 -30 0
v -48 -29 0
v -47 -29 0
v -46 -30 0
v -47 -30 0
v -47 -29 0
v -46 -29 0
v -45 -30 0
v -46 -30 0
v -46 -29 0
v -45 -29 0
v -44 -30 0
v -45 -30 0
v -45 -29 0
v -44 -29 0
v -43 -30 0
v -44 -30 0
v -44 -29 0
v -43 -29 0
v -42 -30 0
v -43 -30 0
v -43 -29 0
v -42 -29 0
v -56 -31 0
v -57 -31 0
v -57 -30 0
v -56 -30 0
v -54 -31 0
v -55 -31 0
v -55 -30 0
v -54 -30 0
v -53 -31 0
v -54 -31 0
v -54 -30 0
v -53 -30 0
v -52 -31 0
v -53 -31 0
v -53 -30 0
v -52 -30 0
v -51 -31 0
v -52 -31 0
v -52 -30 0
v -51 -30 0
v -50 -31 0
v -51 -31 0
v -51 -30 0
v -50 -30 0
v -49 -31 0
v -50 -31 0
v -50 -30 0
v -49 -30 0
v -48 -31 0
v -49 -31 0
v -49 -30 0
v -48 -30 0
v -47 -31 0
v -48 -31 0
v -48 -30 0
v -47 -30 0
v -46 -31 0
v -47 -31 0
v -47 -30 0
v -46 -30 0
v -45 -31 0
v -46 -31 0
v -46 -30 0
v -45 -30 0
v -44 -31 0
v -45 -31 0
v -45 -30 0
v -44 -30 0
v -43 -31 0
v -44 -31 0
v -44 -30 0
v -43 -30 0
v -42 -31 0
v -43 -31 0
v -43 -30 0
v -42 -30 0
v -54 -32 0
v -55 -32 0
v -55 -31 0
v -54 -31 0
v -53 -32 0
v -54 -32 0
v -54 -31 0
v -53 -31 0
v -52 -32 0
v -53 -32 0
v -53 -31 0
v -52 -31 0
v -51 -32 0
v -52 -32 0
v -52 -31 0
v -51 -31 0
v -50 -32 0
v -51 -32 0
v -51 -31 0
v -50 -31 0
v -49 -32 0
v -50 -32 0
v -50 -31 0
v -49 -31 0
v -48 -32 0
v -49 -32 0
v -49 -31 0
v -48 -31 0
v -47 -32 0
v -48 -32 0
v -48 -31 0
v -47 -31 0
v -46 -32 0
v -47 -32 0
v -47 -31 0
v -46 -31 0
v -45 -32 0
v -46 -32 0
v -46 -31 0
v -45 -31 0
v -44 -32 0
v -45 -32 0
v -45 -31 0
v -44 -31 0
v -43 -32 0
v -44 -32 0
v -44 -31 0
v -43 -31 0
v -42 -32 0
v -43 -32 0
v -43 -31 0
v -42 -31 0
v -54 -33 0
v -55 -33 0
v -55 -32 0
v -54 -32 0
v -53 -33 0
v -54 -33 0
v -54 -32 0
v -53 -32 0
v -52 -33 0
v -53 -33 0
v -53 -32 0
v -52 -32 0
v -51 -33 0
v -52 -33 0
v -52 -32 0
v -51 -32 0
v -50 -33 0
v -51 -33 0
v -51 -32 0
v -50 -32 0
v -49 -33 0
v -50 -33 0
v -50 -32 0
v -49 -32 0
v -48 -33 0
v -49 -33 0
v -49 -32 0
v -48 -32 0
v -47 -33 0
v -48 -33 0
v -48 -32 0
v -47 -32 0
v -46 -33 0
v -47 -33 0
v -47 -32 0
v -46 -32 0
v -45 -33 0
v -46 -33 0
v -46 -32 0
v -45 -32 0
v -44 -33 0
v -45 -33 0
v -45 -32 0
v -44 -32 0
v -43 -33 0
v -44 -33 0
v -44 -32 0
v -43 -32 0
v -42 -33 0
v -43 -33 0
v -43 -32 0
v -42 -32 0
v -47 -34 0
v -48 -34 0
v -48 -33 0
v -47 -33 0
v -46 -34 0
v -47 -34 0
v -47 -33 0
v -46 -33 0
v -45 -34 0
v -46 -34 0
v -46 -33 0
v -45 -33 0
v -44 -34 0
v -45 -34 0
v -45 -33 0
v -44 -33 0
v -43 -34 0
v -44 -34 0
v -44 -33 0
v -43 -33 0
v -42 -34 0
v -43 -34 0
v -43 -33 0
v -42 -33 0
v -57 -36 0
v -58 -36 0
v -58 -35 0
v -57 -35 0
v -56 -36 0
v -57 -36 0
v -57 -35 0
v -56 -35 0
v -55 -36 0
v -56 -36 0
v -56 -35 0
v -55 -35 0
v -54 -36 0
v -55 -36 0
v -55 -35 0
v -54 -35 0
v -53 -36 0
v -54 -36 0
v -54 -35 0
v -53 -35 0
v -52 -36 0
v -53 -36 0
v -53 -35 0
v -52 -35 0
v -51 -36 0
v -52 -36 0
v -52 -35 0
v -51 -35 0
v -50 -36 0
v -51 -36 0
v -51 -35 0
v -50 -35 0
v -49 -36 0
v -50 -36 0
v -50 -35 0
v -49 -35 0
v -57 -37 0
v -58 -37 0
v -58 -36 0
v -57 -36 0
v -56 -37 0
v -57 -37 0
v -57 -36 0
v -56 -36 0
v -55 -37 0
v -56 -37 0
v -56 -36 0
v -55 -36 0
v -54 -37 0
v -55 -37 0
v -55 -36 0
v -54 -36 0
v -53 -37 0
v -54 -37 0
v -54 -36 0
v -53 -36 0
v -52 -37 0
v -53 -37 0
v -53 -36 0
v -52 -36 0
v -51 -37 0
v -52 -37 0
v -52 -36 0
v -51 -36 0
v -50 -37 0
v -51 -37 0
v -51 -36 0
v -50 -36 0
v -49 -37 0
v -50 -37 0
v -50 -36 0
v -49 -36 0

# Texture cooridinates (Count = 45)
vt 0 0.5
vt 0.125 0.5
vt 0.125 0.52
vt 0 0.52
vt 0.125 0.84
vt 0.25 0.84
vt 0.25 0.86
vt 0.125 0.86
vt 0 0.48
vt 0.125 0.48
vt 0.5 0.42
vt 0.625 0.42
vt 0.625 0.44
vt 0.5 0.44
vt 0.375 0.42
vt 0.375 0.44
vt 0 0.46
vt 0.125 0.46
vt 0.25 0.42
vt 0.25 0.44
vt 0.125 0.42
vt 0.125 0.44
vt 0 0.42
vt 0 0.44
vt 0.5 0.4
vt 0.625 0.4
vt 0.375 0.4
vt 0.875 0.12
vt 1 0.12
vt 1 0.14
vt 0.875 0.14
vt 0.75 0.12
vt 0.75 0.14
vt 0.25 0.4
vt 0.875 0.1
vt 1 0.1
vt 0.75 0.1
vt 0.125 0.4
vt 0 0.4
vt 0.25 0.48
vt 0.375 0.48
vt 0.375 0.5
vt 0.25 0.5
vt 0.25 0.46
vt 0.375 0.46

# Normal
vn 0 0 -1

# Mesh description
g Map01_mesh_0005

# Faces
f 1/1/1 2/2/1 3/3/1 4/4/1
f 5/5/1 6/6/1 7/7/1 8/8/1
f 9/5/1 10/6/1 11/7/1 12/8/1
f 13/5/1 14/6/1 15/7/1 16/8/1
f 17/5/1 18/6/1 19/7/1 20/8/1
f 21/9/1 22/10/1 23/2/1 24/1/1
f 25/11/1 26/12/1 27/13/1 28/14/1
f 29/15/1 30/11/1 31/14/1 32/16/1
f 33/15/1 34/11/1 35/14/1 36/16/1
f 37/15/1 38/11/1 39/14/1 40/16/1
f 41/15/1 42/11/1 43/14/1 44/16/1
f 45/15/1 46/11/1 47/14/1 48/16/1
f 49/15/1 50/11/1 51/14/1 52/16/1
f 53/5/1 54/6/1 55/7/1 56/8/1
f 57/5/1 58/6/1 59/7/1 60/8/1
f 61/5/1 62/6/1 63/7/1 64/8/1
f 65/5/1 66/6/1 67/7/1 68/8/1
f 69/5/1 70/6/1 71/7/1 72/8/1
f 73/5/1 74/6/1 75/7/1 76/8/1
f 77/17/1 78/18/1 79/10/1 80/9/1
f 81/11/1 82/12/1 83/13/1 84/14/1
f 85/15/1 86/11/1 87/14/1 88/16/1
f 89/15/1 90/11/1 91/14/1 92/16/1
f 93/15/1 94/11/1 95/14/1 96/16/1
f 97/15/1 98/11/1 99/14/1 100/16/1
f 101/15/1 102/11/1 103/14/1 104/16/1
f 105/15/1 106/11/1 107/14/1 108/16/1
f 109/19/1 110/15/1 111/16/1 112/20/1
f 113/21/1 114/19/1 115/20/1 116/22/1
f 117/21/1 118/19/1 119/20/1 120/22/1
f 121/21/1 122/19/1 123/20/1 124/22/1
f 125/21/1 126/19/1 127/20/1 128/22/1
f 129/23/1 130/21/1 131/22/1 132/24/1
f 133/11/1 134/12/1 135/13/1 136/14/1
f 137/15/1 138/11/1 139/14/1 140/16/1
f 141/15/1 142/11/1 143/14/1 144/16/1
f 145/15/1 146/11/1 147/14/1 148/16/1
f 149/15/1 150/11/1 151/14/1 152/16/1
f 153/15/1 154/11/1 155/14/1 156/16/1
f 157/15/1 158/11/1 159/14/1 160/16/1
f 161/19/1 162/15/1 163/16/1 164/20/1
f 165/21/1 166/19/1 167/20/1 168/22/1
f 169/21/1 170/19/1 171/20/1 172/22/1
f 173/21/1 174/19/1 175/20/1 176/22/1
f 177/23/1 178/21/1 179/22/1 180/24/1
f 181/23/1 182/21/1 183/22/1 184/24/1
f 185/25/1 186/26/1 187/12/1 188/11/1
f 189/27/1 190/25/1 191/11/1 192/15/1
f 193/27/1 194/25/1 195/11/1 196/15/1
f 197/27/1 198/25/1 199/11/1 200/15/1
f 201/27/1 202/25/1 203/11/1 204/15/1
f 205/27/1 206/25/1 207/11/1 208/15/1
f 209/27/1 210/25/1 211/11/1 212/15/1
f 213/19/1 214/15/1 215/16/1 216/20/1
f 217/28/1 218/29/1 219/30/1 220/31/1
f 221/32/1 222/28/1 223/31/1 224/33/1
f 225/21/1 226/19/1 227/20/1 228/22/1
f 229/21/1 230/19/1 231/20/1 232/22/1
f 233/23/1 234/21/1 235/22/1 236/24/1
f 237/34/1 238/27/1 239/15/1 240/19/1
f 241/35/1 242/36/1 243/29/1 244/28/1
f 245/37/1 246/35/1 247/28/1 248/32/1
f 249/38/1 250/34/1 251/19/1 252/21/1
f 253/38/1 254/34/1 255/19/1 256/21/1
f 257/39/1 258/38/1 259/21/1 260/23/1
f 261/40/1 262/41/1 263/42/1 264/43/1
f 265/40/1 266/41/1 267/42/1 268/43/1
f 269/40/1 270/41/1 271/42/1 272/43/1
f 273/40/1 274/41/1 275/42/1 276/43/1
f 277/40/1 278/41/1 279/42/1 280/43/1
f 281/40/1 282/41/1 283/42/1 284/43/1
f 285/40/1 286/41/1 287/42/1 288/43/1
f 289/40/1 290/41/1 291/42/1 292/43/1
f 293/40/1 294/41/1 295/42/1 296/43/1
f 297/44/1 298/45/1 299/41/1 300/40/1
f 301/44/1 302/45/1 303/41/1 304/40/1
f 305/44/1 306/45/1 307/41/1 308/40/1
f 309/44/1 310/45/1 311/41/1 312/40/1
f 313/44/1 314/45/1 315/41/1 316/40/1
f 317/44/1 318/45/1 319/41/1 320/40/1
f 321/44/1 322/45/1 323/41/1 324/40/1
f 325/44/1 326/45/1 327/41/1 328/40/1
f 329/44/1 330/45/1 331/41/1 332/40/1

