# Tiled2Unity generated file. Do not modify by hand.
# Wavefront file for 'Map01_mesh_0007.obj'

# Vertices (Count = 512)
v -25 -23 0
v -26 -23 0
v -26 -22 0
v -25 -22 0
v -24 -23 0
v -25 -23 0
v -25 -22 0
v -24 -22 0
v -46 -24 0
v -47 -24 0
v -47 -23 0
v -46 -23 0
v -45 -24 0
v -46 -24 0
v -46 -23 0
v -45 -23 0
v -44 -24 0
v -45 -24 0
v -45 -23 0
v -44 -23 0
v -43 -24 0
v -44 -24 0
v -44 -23 0
v -43 -23 0
v -26 -24 0
v -27 -24 0
v -27 -23 0
v -26 -23 0
v -25 -24 0
v -26 -24 0
v -26 -23 0
v -25 -23 0
v -24 -24 0
v -25 -24 0
v -25 -23 0
v -24 -23 0
v -23 -24 0
v -24 -24 0
v -24 -23 0
v -23 -23 0
v -47 -25 0
v -48 -25 0
v -48 -24 0
v -47 -24 0
v -46 -25 0
v -47 -25 0
v -47 -24 0
v -46 -24 0
v -45 -25 0
v -46 -25 0
v -46 -24 0
v -45 -24 0
v -44 -25 0
v -45 -25 0
v -45 -24 0
v -44 -24 0
v -43 -25 0
v -44 -25 0
v -44 -24 0
v -43 -24 0
v -42 -25 0
v -43 -25 0
v -43 -24 0
v -42 -24 0
v -27 -25 0
v -28 -25 0
v -28 -24 0
v -27 -24 0
v -26 -25 0
v -27 -25 0
v -27 -24 0
v -26 -24 0
v -25 -25 0
v -26 -25 0
v -26 -24 0
v -25 -24 0
v -24 -25 0
v -25 -25 0
v -25 -24 0
v -24 -24 0
v -23 -25 0
v -24 -25 0
v -24 -24 0
v -23 -24 0
v -22 -25 0
v -23 -25 0
v -23 -24 0
v -22 -24 0
v -54 -26 0
v -55 -26 0
v -55 -25 0
v -54 -25 0
v -53 -26 0
v -54 -26 0
v -54 -25 0
v -53 -25 0
v -52 -26 0
v -53 -26 0
v -53 -25 0
v -52 -25 0
v -51 -26 0
v -52 -26 0
v -52 -25 0
v -51 -25 0
v -50 -26 0
v -51 -26 0
v -51 -25 0
v -50 -25 0
v -49 -26 0
v -50 -26 0
v -50 -25 0
v -49 -25 0
v -48 -26 0
v -49 -26 0
v -49 -25 0
v -48 -25 0
v -47 -26 0
v -48 -26 0
v -48 -25 0
v -47 -25 0
v -46 -26 0
v -47 -26 0
v -47 -25 0
v -46 -25 0
v -45 -26 0
v -46 -26 0
v -46 -25 0
v -45 -25 0
v -44 -26 0
v -45 -26 0
v -45 -25 0
v -44 -25 0
v -43 -26 0
v -44 -26 0
v -44 -25 0
v -43 -25 0
v -42 -26 0
v -43 -26 0
v -43 -25 0
v -42 -25 0
v -28 -26 0
v -29 -26 0
v -29 -25 0
v -28 -25 0
v -27 -26 0
v -28 -26 0
v -28 -25 0
v -27 -25 0
v -26 -26 0
v -27 -26 0
v -27 -25 0
v -26 -25 0
v -25 -26 0
v -26 -26 0
v -26 -25 0
v -25 -25 0
v -24 -26 0
v -25 -26 0
v -25 -25 0
v -24 -25 0
v -23 -26 0
v -24 -26 0
v -24 -25 0
v -23 -25 0
v -22 -26 0
v -23 -26 0
v -23 -25 0
v -22 -25 0
v -21 -26 0
v -22 -26 0
v -22 -25 0
v -21 -25 0
v -54 -27 0
v -55 -27 0
v -55 -26 0
v -54 -26 0
v -53 -27 0
v -54 -27 0
v -54 -26 0
v -53 -26 0
v -52 -27 0
v -53 -27 0
v -53 -26 0
v -52 -26 0
v -51 -27 0
v -52 -27 0
v -52 -26 0
v -51 -26 0
v -50 -27 0
v -51 -27 0
v -51 -26 0
v -50 -26 0
v -49 -27 0
v -50 -27 0
v -50 -26 0
v -49 -26 0
v -48 -27 0
v -49 -27 0
v -49 -26 0
v -48 -26 0
v -47 -27 0
v -48 -27 0
v -48 -26 0
v -47 -26 0
v -46 -27 0
v -47 -27 0
v -47 -26 0
v -46 -26 0
v -45 -27 0
v -46 -27 0
v -46 -26 0
v -45 -26 0
v -44 -27 0
v -45 -27 0
v -45 -26 0
v -44 -26 0
v -43 -27 0
v -44 -27 0
v -44 -26 0
v -43 -26 0
v -42 -27 0
v -43 -27 0
v -43 -26 0
v -42 -26 0
v -28 -27 0
v -29 -27 0
v -29 -26 0
v -28 -26 0
v -27 -27 0
v -28 -27 0
v -28 -26 0
v -27 -26 0
v -26 -27 0
v -27 -27 0
v -27 -26 0
v -26 -26 0
v -25 -27 0
v -26 -27 0
v -26 -26 0
v -25 -26 0
v -24 -27 0
v -25 -27 0
v -25 -26 0
v -24 -26 0
v -23 -27 0
v -24 -27 0
v -24 -26 0
v -23 -26 0
v -22 -27 0
v -23 -27 0
v -23 -26 0
v -22 -26 0
v -21 -27 0
v -22 -27 0
v -22 -26 0
v -21 -26 0
v -54 -28 0
v -55 -28 0
v -55 -27 0
v -54 -27 0
v -53 -28 0
v -54 -28 0
v -54 -27 0
v -53 -27 0
v -52 -28 0
v -53 -28 0
v -53 -27 0
v -52 -27 0
v -51 -28 0
v -52 -28 0
v -52 -27 0
v -51 -27 0
v -50 -28 0
v -51 -28 0
v -51 -27 0
v -50 -27 0
v -49 -28 0
v -50 -28 0
v -50 -27 0
v -49 -27 0
v -48 -28 0
v -49 -28 0
v -49 -27 0
v -48 -27 0
v -47 -28 0
v -48 -28 0
v -48 -27 0
v -47 -27 0
v -46 -28 0
v -47 -28 0
v -47 -27 0
v -46 -27 0
v -45 -28 0
v -46 -28 0
v -46 -27 0
v -45 -27 0
v -44 -28 0
v -45 -28 0
v -45 -27 0
v -44 -27 0
v -43 -28 0
v -44 -28 0
v -44 -27 0
v -43 -27 0
v -42 -28 0
v -43 -28 0
v -43 -27 0
v -42 -27 0
v -28 -28 0
v -29 -28 0
v -29 -27 0
v -28 -27 0
v -27 -28 0
v -28 -28 0
v -28 -27 0
v -27 -27 0
v -26 -28 0
v -27 -28 0
v -27 -27 0
v -26 -27 0
v -23 -28 0
v -24 -28 0
v -24 -27 0
v -23 -27 0
v -22 -28 0
v -23 -28 0
v -23 -27 0
v -22 -27 0
v -21 -28 0
v -22 -28 0
v -22 -27 0
v -21 -27 0
v -54 -29 0
v -55 -29 0
v -55 -28 0
v -54 -28 0
v -53 -29 0
v -54 -29 0
v -54 -28 0
v -53 -28 0
v -52 -29 0
v -53 -29 0
v -53 -28 0
v -52 -28 0
v -51 -29 0
v -52 -29 0
v -52 -28 0
v -51 -28 0
v -50 -29 0
v -51 -29 0
v -51 -28 0
v -50 -28 0
v -49 -29 0
v -50 -29 0
v -50 -28 0
v -49 -28 0
v -48 -29 0
v -49 -29 0
v -49 -28 0
v -48 -28 0
v -47 -29 0
v -48 -29 0
v -48 -28 0
v -47 -28 0
v -46 -29 0
v -47 -29 0
v -47 -28 0
v -46 -28 0
v -45 -29 0
v -46 -29 0
v -46 -28 0
v -45 -28 0
v -44 -29 0
v -45 -29 0
v -45 -28 0
v -44 -28 0
v -43 -29 0
v -44 -29 0
v -44 -28 0
v -43 -28 0
v -42 -29 0
v -43 -29 0
v -43 -28 0
v -42 -28 0
v -28 -29 0
v -29 -29 0
v -29 -28 0
v -28 -28 0
v -27 -29 0
v -28 -29 0
v -28 -28 0
v -27 -28 0
v -25 -29 0
v -26 -29 0
v -26 -28 0
v -25 -28 0
v -24 -29 0
v -25 -29 0
v -25 -28 0
v -24 -28 0
v -22 -29 0
v -23 -29 0
v -23 -28 0
v -22 -28 0
v -21 -29 0
v -22 -29 0
v -22 -28 0
v -21 -28 0
v -54 -30 0
v -55 -30 0
v -55 -29 0
v -54 -29 0
v -53 -30 0
v -54 -30 0
v -54 -29 0
v -53 -29 0
v -52 -30 0
v -53 -30 0
v -53 -29 0
v -52 -29 0
v -51 -30 0
v -52 -30 0
v -52 -29 0
v -51 -29 0
v -50 -30 0
v -51 -30 0
v -51 -29 0
v -50 -29 0
v -49 -30 0
v -50 -30 0
v -50 -29 0
v -49 -29 0
v -48 -30 0
v -49 -30 0
v -49 -29 0
v -48 -29 0
v -47 -30 0
v -48 -30 0
v -48 -29 0
v -47 -29 0
v -46 -30 0
v -47 -30 0
v -47 -29 0
v -46 -29 0
v -45 -30 0
v -46 -30 0
v -46 -29 0
v -45 -29 0
v -44 -30 0
v -45 -30 0
v -45 -29 0
v -44 -29 0
v -43 -30 0
v -44 -30 0
v -44 -29 0
v -43 -29 0
v -42 -30 0
v -43 -30 0
v -43 -29 0
v -42 -29 0
v -28 -30 0
v -29 -30 0
v -29 -29 0
v -28 -29 0
v -21 -30 0
v -22 -30 0
v -22 -29 0
v -21 -29 0
v -47 -31 0
v -48 -31 0
v -48 -30 0
v -47 -30 0
v -42 -31 0
v -43 -31 0
v -43 -30 0
v -42 -30 0
v -51 -32 0
v -52 -32 0
v -52 -31 0
v -51 -31 0
v -50 -32 0
v -51 -32 0
v -51 -31 0
v -50 -31 0
v -49 -32 0
v -50 -32 0
v -50 -31 0
v -49 -31 0
v -48 -32 0
v -49 -32 0
v -49 -31 0
v -48 -31 0
v -51 -33 0
v -52 -33 0
v -52 -32 0
v -51 -32 0
v -50 -33 0
v -51 -33 0
v -51 -32 0
v -50 -32 0
v -49 -33 0
v -50 -33 0
v -50 -32 0
v -49 -32 0
v -48 -33 0
v -49 -33 0
v -49 -32 0
v -48 -32 0
v -48 -34 0
v -49 -34 0
v -49 -33 0
v -48 -33 0

# Texture cooridinates (Count = 57)
vt 0.125 0.2
vt 0.25 0.2
vt 0.25 0.22
vt 0.125 0.22
vt 0 0.2
vt 0 0.22
vt 0.375 0.3
vt 0.5 0.3
vt 0.5 0.32
vt 0.375 0.32
vt 0.25 0.3
vt 0.25 0.32
vt 0.125 0.3
vt 0.125 0.32
vt 0.125 0.18
vt 0.25 0.18
vt 0 0.18
vt 0.375 0.28
vt 0.5 0.28
vt 0.25 0.28
vt 0.125 0.28
vt 0.625 0.28
vt 0.625 0.3
vt 0.5 0.26
vt 0.625 0.26
vt 0.125 0.16
vt 0.25 0.16
vt 0 0.16
vt 0.375 0.26
vt 0.25 0.26
vt 0.125 0.26
vt 0.5 0.24
vt 0.625 0.24
vt 0.375 0.24
vt 0.25 0.24
vt 0.125 0.24
vt 0.375 0.14
vt 0.5 0.14
vt 0.5 0.16
vt 0.375 0.16
vt 0.5 0.22
vt 0.625 0.22
vt 0.375 0.22
vt 0 0.24
vt 0.25 0.12
vt 0.375 0.12
vt 0.25 0.14
vt 0.125 0.12
vt 0.125 0.14
vt 0 0.12
vt 0 0.14
vt 0.375 0.18
vt 0.375 0.2
vt 0.25 0.1
vt 0.375 0.1
vt 0.125 0.1
vt 0 0.1

# Normal
vn 0 0 -1

# Mesh description
g Map01_mesh_0007

# Faces
f 1/1/1 2/2/1 3/3/1 4/4/1
f 5/5/1 6/1/1 7/4/1 8/6/1
f 9/7/1 10/8/1 11/9/1 12/10/1
f 13/11/1 14/7/1 15/10/1 16/12/1
f 17/11/1 18/7/1 19/10/1 20/12/1
f 21/13/1 22/11/1 23/12/1 24/14/1
f 25/1/1 26/2/1 27/3/1 28/4/1
f 29/15/1 30/16/1 31/2/1 32/1/1
f 33/17/1 34/15/1 35/1/1 36/5/1
f 37/5/1 38/1/1 39/4/1 40/6/1
f 41/7/1 42/8/1 43/9/1 44/10/1
f 45/18/1 46/19/1 47/8/1 48/7/1
f 49/20/1 50/18/1 51/7/1 52/11/1
f 53/20/1 54/18/1 55/7/1 56/11/1
f 57/21/1 58/20/1 59/11/1 60/13/1
f 61/13/1 62/11/1 63/12/1 64/14/1
f 65/1/1 66/2/1 67/3/1 68/4/1
f 69/15/1 70/16/1 71/2/1 72/1/1
f 73/15/1 74/16/1 75/2/1 76/1/1
f 77/17/1 78/15/1 79/1/1 80/5/1
f 81/17/1 82/15/1 83/1/1 84/5/1
f 85/5/1 86/1/1 87/4/1 88/6/1
f 89/19/1 90/22/1 91/23/1 92/8/1
f 93/19/1 94/22/1 95/23/1 96/8/1
f 97/19/1 98/22/1 99/23/1 100/8/1
f 101/19/1 102/22/1 103/23/1 104/8/1
f 105/19/1 106/22/1 107/23/1 108/8/1
f 109/19/1 110/22/1 111/23/1 112/8/1
f 113/19/1 114/22/1 115/23/1 116/8/1
f 117/18/1 118/19/1 119/8/1 120/7/1
f 121/18/1 122/19/1 123/8/1 124/7/1
f 125/20/1 126/18/1 127/7/1 128/11/1
f 129/20/1 130/18/1 131/7/1 132/11/1
f 133/21/1 134/20/1 135/11/1 136/13/1
f 137/21/1 138/20/1 139/11/1 140/13/1
f 141/1/1 142/2/1 143/3/1 144/4/1
f 145/15/1 146/16/1 147/2/1 148/1/1
f 149/15/1 150/16/1 151/2/1 152/1/1
f 153/15/1 154/16/1 155/2/1 156/1/1
f 157/17/1 158/15/1 159/1/1 160/5/1
f 161/17/1 162/15/1 163/1/1 164/5/1
f 165/17/1 166/15/1 167/1/1 168/5/1
f 169/5/1 170/1/1 171/4/1 172/6/1
f 173/24/1 174/25/1 175/22/1 176/19/1
f 177/24/1 178/25/1 179/22/1 180/19/1
f 181/24/1 182/25/1 183/22/1 184/19/1
f 185/24/1 186/25/1 187/22/1 188/19/1
f 189/24/1 190/25/1 191/22/1 192/19/1
f 193/24/1 194/25/1 195/22/1 196/19/1
f 197/24/1 198/25/1 199/22/1 200/19/1
f 201/18/1 202/19/1 203/8/1 204/7/1
f 205/18/1 206/19/1 207/8/1 208/7/1
f 209/20/1 210/18/1 211/7/1 212/11/1
f 213/20/1 214/18/1 215/7/1 216/11/1
f 217/21/1 218/20/1 219/11/1 220/13/1
f 221/21/1 222/20/1 223/11/1 224/13/1
f 225/15/1 226/16/1 227/2/1 228/1/1
f 229/15/1 230/16/1 231/2/1 232/1/1
f 233/15/1 234/16/1 235/2/1 236/1/1
f 237/26/1 238/27/1 239/16/1 240/15/1
f 241/28/1 242/26/1 243/15/1 244/17/1
f 245/17/1 246/15/1 247/1/1 248/5/1
f 249/17/1 250/15/1 251/1/1 252/5/1
f 253/17/1 254/15/1 255/1/1 256/5/1
f 257/24/1 258/25/1 259/22/1 260/19/1
f 261/24/1 262/25/1 263/22/1 264/19/1
f 265/24/1 266/25/1 267/22/1 268/19/1
f 269/24/1 270/25/1 271/22/1 272/19/1
f 273/24/1 274/25/1 275/22/1 276/19/1
f 277/24/1 278/25/1 279/22/1 280/19/1
f 281/24/1 282/25/1 283/22/1 284/19/1
f 285/18/1 286/19/1 287/8/1 288/7/1
f 289/29/1 290/24/1 291/19/1 292/18/1
f 293/30/1 294/29/1 295/18/1 296/20/1
f 297/30/1 298/29/1 299/18/1 300/20/1
f 301/31/1 302/30/1 303/20/1 304/21/1
f 305/21/1 306/20/1 307/11/1 308/13/1
f 309/15/1 310/16/1 311/2/1 312/1/1
f 313/15/1 314/16/1 315/2/1 316/1/1
f 317/26/1 318/27/1 319/16/1 320/15/1
f 321/28/1 322/26/1 323/15/1 324/17/1
f 325/17/1 326/15/1 327/1/1 328/5/1
f 329/17/1 330/15/1 331/1/1 332/5/1
f 333/32/1 334/33/1 335/25/1 336/24/1
f 337/32/1 338/33/1 339/25/1 340/24/1
f 341/32/1 342/33/1 343/25/1 344/24/1
f 345/32/1 346/33/1 347/25/1 348/24/1
f 349/32/1 350/33/1 351/25/1 352/24/1
f 353/32/1 354/33/1 355/25/1 356/24/1
f 357/32/1 358/33/1 359/25/1 360/24/1
f 361/29/1 362/24/1 363/19/1 364/18/1
f 365/34/1 366/32/1 367/24/1 368/29/1
f 369/35/1 370/34/1 371/29/1 372/30/1
f 373/35/1 374/34/1 375/29/1 376/30/1
f 377/36/1 378/35/1 379/30/1 380/31/1
f 381/31/1 382/30/1 383/20/1 384/21/1
f 385/15/1 386/16/1 387/2/1 388/1/1
f 389/26/1 390/27/1 391/16/1 392/15/1
f 393/37/1 394/38/1 395/39/1 396/40/1
f 397/37/1 398/38/1 399/39/1 400/40/1
f 401/28/1 402/26/1 403/15/1 404/17/1
f 405/17/1 406/15/1 407/1/1 408/5/1
f 409/41/1 410/42/1 411/33/1 412/32/1
f 413/41/1 414/42/1 415/33/1 416/32/1
f 417/41/1 418/42/1 419/33/1 420/32/1
f 421/41/1 422/42/1 423/33/1 424/32/1
f 425/41/1 426/42/1 427/33/1 428/32/1
f 429/41/1 430/42/1 431/33/1 432/32/1
f 433/41/1 434/42/1 435/33/1 436/32/1
f 437/34/1 438/32/1 439/24/1 440/29/1
f 441/43/1 442/41/1 443/32/1 444/34/1
f 445/6/1 446/4/1 447/36/1 448/44/1
f 449/6/1 450/4/1 451/36/1 452/44/1
f 453/4/1 454/3/1 455/35/1 456/36/1
f 457/36/1 458/35/1 459/30/1 460/31/1
f 461/26/1 462/27/1 463/16/1 464/15/1
f 465/28/1 466/26/1 467/15/1 468/17/1
f 469/43/1 470/41/1 471/32/1 472/34/1
f 473/4/1 474/3/1 475/35/1 476/36/1
f 477/45/1 478/46/1 479/37/1 480/47/1
f 481/48/1 482/45/1 483/47/1 484/49/1
f 485/50/1 486/48/1 487/49/1 488/51/1
f 489/16/1 490/52/1 491/53/1 492/2/1
f 493/54/1 494/55/1 495/46/1 496/45/1
f 497/56/1 498/54/1 499/45/1 500/48/1
f 501/57/1 502/56/1 503/48/1 504/50/1
f 505/27/1 506/40/1 507/52/1 508/16/1
f 509/47/1 510/37/1 511/40/1 512/27/1

