# Tiled2Unity generated file. Do not modify by hand.
# Wavefront file for 'map1_mesh_0004.obj'

# Vertices (Count = 36)
v -48 -9 0
v -49 -9 0
v -49 -8 0
v -48 -8 0
v -47 -9 0
v -48 -9 0
v -48 -8 0
v -47 -8 0
v -49 -10 0
v -50 -10 0
v -50 -9 0
v -49 -9 0
v -46 -10 0
v -47 -10 0
v -47 -9 0
v -46 -9 0
v -50 -11 0
v -51 -11 0
v -51 -10 0
v -50 -10 0
v -45 -11 0
v -46 -11 0
v -46 -10 0
v -45 -10 0
v -49 -13 0
v -50 -13 0
v -50 -12 0
v -49 -12 0
v -46 -13 0
v -47 -13 0
v -47 -12 0
v -46 -12 0
v -48 -15 0
v -49 -15 0
v -49 -14 0
v -48 -14 0

# Texture cooridinates (Count = 16)
vt 0.2458678 0.2262357
vt 0.2623967 0.2262357
vt 0.2623967 0.256654
vt 0.2458678 0.256654
vt 0.2283058 0.2262357
vt 0.2448347 0.2262357
vt 0.2448347 0.256654
vt 0.2283058 0.256654
vt 0.7551653 0.9695817
vt 0.7716942 0.9695817
vt 0.7716942 1
vt 0.7551653 1
vt 0.5619835 0.8403042
vt 0.5785124 0.8403042
vt 0.5785124 0.8707224
vt 0.5619835 0.8707224

# Normal
vn 0 0 -1

# Mesh description
g map1_mesh_0004

# Faces
f 1/1/1 2/2/1 3/3/1 4/4/1
f 5/5/1 6/6/1 7/7/1 8/8/1
f 9/1/1 10/2/1 11/3/1 12/4/1
f 13/5/1 14/6/1 15/7/1 16/8/1
f 17/1/1 18/2/1 19/3/1 20/4/1
f 21/5/1 22/6/1 23/7/1 24/8/1
f 25/9/1 26/10/1 27/11/1 28/12/1
f 29/9/1 30/10/1 31/11/1 32/12/1
f 33/13/1 34/14/1 35/15/1 36/16/1

