# Tiled2Unity generated file. Do not modify by hand.
# Wavefront file for 'map1_mesh_0003.obj'

# Vertices (Count = 548)
v -41 -5 0
v -42 -5 0
v -42 -4 0
v -41 -4 0
v -38 -6 0
v -39 -6 0
v -39 -5 0
v -38 -5 0
v -37 -6 0
v -38 -6 0
v -38 -5 0
v -37 -5 0
v -48 -7 0
v -49 -7 0
v -49 -6 0
v -48 -6 0
v -47 -7 0
v -48 -7 0
v -48 -6 0
v -47 -6 0
v -44 -7 0
v -45 -7 0
v -45 -6 0
v -44 -6 0
v -38 -7 0
v -39 -7 0
v -39 -6 0
v -38 -6 0
v -37 -7 0
v -38 -7 0
v -38 -6 0
v -37 -6 0
v -33 -7 0
v -34 -7 0
v -34 -6 0
v -33 -6 0
v -32 -7 0
v -33 -7 0
v -33 -6 0
v -32 -6 0
v -49 -8 0
v -50 -8 0
v -50 -7 0
v -49 -7 0
v -48 -8 0
v -49 -8 0
v -49 -7 0
v -48 -7 0
v -47 -8 0
v -48 -8 0
v -48 -7 0
v -47 -7 0
v -46 -8 0
v -47 -8 0
v -47 -7 0
v -46 -7 0
v -33 -8 0
v -34 -8 0
v -34 -7 0
v -33 -7 0
v -32 -8 0
v -33 -8 0
v -33 -7 0
v -32 -7 0
v -50 -9 0
v -51 -9 0
v -51 -8 0
v -50 -8 0
v -49 -9 0
v -50 -9 0
v -50 -8 0
v -49 -8 0
v -48 -9 0
v -49 -9 0
v -49 -8 0
v -48 -8 0
v -47 -9 0
v -48 -9 0
v -48 -8 0
v -47 -8 0
v -46 -9 0
v -47 -9 0
v -47 -8 0
v -46 -8 0
v -45 -9 0
v -46 -9 0
v -46 -8 0
v -45 -8 0
v -42 -9 0
v -43 -9 0
v -43 -8 0
v -42 -8 0
v -50 -10 0
v -51 -10 0
v -51 -9 0
v -50 -9 0
v -49 -10 0
v -50 -10 0
v -50 -9 0
v -49 -9 0
v -48 -10 0
v -49 -10 0
v -49 -9 0
v -48 -9 0
v -47 -10 0
v -48 -10 0
v -48 -9 0
v -47 -9 0
v -46 -10 0
v -47 -10 0
v -47 -9 0
v -46 -9 0
v -45 -10 0
v -46 -10 0
v -46 -9 0
v -45 -9 0
v -42 -10 0
v -43 -10 0
v -43 -9 0
v -42 -9 0
v -50 -11 0
v -51 -11 0
v -51 -10 0
v -50 -10 0
v -49 -11 0
v -50 -11 0
v -50 -10 0
v -49 -10 0
v -48 -11 0
v -49 -11 0
v -49 -10 0
v -48 -10 0
v -47 -11 0
v -48 -11 0
v -48 -10 0
v -47 -10 0
v -46 -11 0
v -47 -11 0
v -47 -10 0
v -46 -10 0
v -45 -11 0
v -46 -11 0
v -46 -10 0
v -45 -10 0
v -29 -11 0
v -30 -11 0
v -30 -10 0
v -29 -10 0
v -58 -12 0
v -59 -12 0
v -59 -11 0
v -58 -11 0
v -50 -12 0
v -51 -12 0
v -51 -11 0
v -50 -11 0
v -49 -12 0
v -50 -12 0
v -50 -11 0
v -49 -11 0
v -48 -12 0
v -49 -12 0
v -49 -11 0
v -48 -11 0
v -47 -12 0
v -48 -12 0
v -48 -11 0
v -47 -11 0
v -46 -12 0
v -47 -12 0
v -47 -11 0
v -46 -11 0
v -45 -12 0
v -46 -12 0
v -46 -11 0
v -45 -11 0
v -29 -12 0
v -30 -12 0
v -30 -11 0
v -29 -11 0
v -58 -13 0
v -59 -13 0
v -59 -12 0
v -58 -12 0
v -50 -13 0
v -51 -13 0
v -51 -12 0
v -50 -12 0
v -49 -13 0
v -50 -13 0
v -50 -12 0
v -49 -12 0
v -48 -13 0
v -49 -13 0
v -49 -12 0
v -48 -12 0
v -47 -13 0
v -48 -13 0
v -48 -12 0
v -47 -12 0
v -46 -13 0
v -47 -13 0
v -47 -12 0
v -46 -12 0
v -45 -13 0
v -46 -13 0
v -46 -12 0
v -45 -12 0
v -56 -14 0
v -57 -14 0
v -57 -13 0
v -56 -13 0
v -50 -14 0
v -51 -14 0
v -51 -13 0
v -50 -13 0
v -49 -14 0
v -50 -14 0
v -50 -13 0
v -49 -13 0
v -48 -14 0
v -49 -14 0
v -49 -13 0
v -48 -13 0
v -47 -14 0
v -48 -14 0
v -48 -13 0
v -47 -13 0
v -46 -14 0
v -47 -14 0
v -47 -13 0
v -46 -13 0
v -45 -14 0
v -46 -14 0
v -46 -13 0
v -45 -13 0
v -43 -14 0
v -44 -14 0
v -44 -13 0
v -43 -13 0
v -59 -15 0
v -60 -15 0
v -60 -14 0
v -59 -14 0
v -56 -15 0
v -57 -15 0
v -57 -14 0
v -56 -14 0
v -50 -15 0
v -51 -15 0
v -51 -14 0
v -50 -14 0
v -49 -15 0
v -50 -15 0
v -50 -14 0
v -49 -14 0
v -48 -15 0
v -49 -15 0
v -49 -14 0
v -48 -14 0
v -47 -15 0
v -48 -15 0
v -48 -14 0
v -47 -14 0
v -46 -15 0
v -47 -15 0
v -47 -14 0
v -46 -14 0
v -45 -15 0
v -46 -15 0
v -46 -14 0
v -45 -14 0
v -48 -16 0
v -49 -16 0
v -49 -15 0
v -48 -15 0
v -27 -16 0
v -28 -16 0
v -28 -15 0
v -27 -15 0
v -25 -16 0
v -26 -16 0
v -26 -15 0
v -25 -15 0
v -27 -17 0
v -28 -17 0
v -28 -16 0
v -27 -16 0
v -25 -17 0
v -26 -17 0
v -26 -16 0
v -25 -16 0
v -49 -18 0
v -50 -18 0
v -50 -17 0
v -49 -17 0
v -40 -18 0
v -41 -18 0
v -41 -17 0
v -40 -17 0
v -27 -18 0
v -28 -18 0
v -28 -17 0
v -27 -17 0
v -25 -18 0
v -26 -18 0
v -26 -17 0
v -25 -17 0
v -58 -19 0
v -59 -19 0
v -59 -18 0
v -58 -18 0
v -52 -19 0
v -53 -19 0
v -53 -18 0
v -52 -18 0
v -49 -19 0
v -50 -19 0
v -50 -18 0
v -49 -18 0
v -44 -19 0
v -45 -19 0
v -45 -18 0
v -44 -18 0
v -40 -19 0
v -41 -19 0
v -41 -18 0
v -40 -18 0
v -33 -19 0
v -34 -19 0
v -34 -18 0
v -33 -18 0
v -27 -19 0
v -28 -19 0
v -28 -18 0
v -27 -18 0
v -25 -19 0
v -26 -19 0
v -26 -18 0
v -25 -18 0
v -55 -20 0
v -56 -20 0
v -56 -19 0
v -55 -19 0
v -33 -20 0
v -34 -20 0
v -34 -19 0
v -33 -19 0
v -27 -20 0
v -28 -20 0
v -28 -19 0
v -27 -19 0
v -25 -20 0
v -26 -20 0
v -26 -19 0
v -25 -19 0
v -55 -21 0
v -56 -21 0
v -56 -20 0
v -55 -20 0
v -47 -21 0
v -48 -21 0
v -48 -20 0
v -47 -20 0
v -38 -21 0
v -39 -21 0
v -39 -20 0
v -38 -20 0
v -27 -21 0
v -28 -21 0
v -28 -20 0
v -27 -20 0
v -25 -21 0
v -26 -21 0
v -26 -20 0
v -25 -20 0
v -47 -22 0
v -48 -22 0
v -48 -21 0
v -47 -21 0
v -44 -22 0
v -45 -22 0
v -45 -21 0
v -44 -21 0
v -38 -22 0
v -39 -22 0
v -39 -21 0
v -38 -21 0
v -27 -22 0
v -28 -22 0
v -28 -21 0
v -27 -21 0
v -25 -22 0
v -26 -22 0
v -26 -21 0
v -25 -21 0
v -60 -23 0
v -61 -23 0
v -61 -22 0
v -60 -22 0
v -30 -23 0
v -31 -23 0
v -31 -22 0
v -30 -22 0
v -27 -23 0
v -28 -23 0
v -28 -22 0
v -27 -22 0
v -25 -23 0
v -26 -23 0
v -26 -22 0
v -25 -22 0
v -60 -24 0
v -61 -24 0
v -61 -23 0
v -60 -23 0
v -56 -24 0
v -57 -24 0
v -57 -23 0
v -56 -23 0
v -41 -24 0
v -42 -24 0
v -42 -23 0
v -41 -23 0
v -30 -24 0
v -31 -24 0
v -31 -23 0
v -30 -23 0
v -27 -24 0
v -28 -24 0
v -28 -23 0
v -27 -23 0
v -25 -24 0
v -26 -24 0
v -26 -23 0
v -25 -23 0
v -56 -25 0
v -57 -25 0
v -57 -24 0
v -56 -24 0
v -35 -25 0
v -36 -25 0
v -36 -24 0
v -35 -24 0
v -27 -25 0
v -28 -25 0
v -28 -24 0
v -27 -24 0
v -25 -25 0
v -26 -25 0
v -26 -24 0
v -25 -24 0
v -52 -26 0
v -53 -26 0
v -53 -25 0
v -52 -25 0
v -47 -26 0
v -48 -26 0
v -48 -25 0
v -47 -25 0
v -35 -26 0
v -36 -26 0
v -36 -25 0
v -35 -25 0
v -31 -26 0
v -32 -26 0
v -32 -25 0
v -31 -25 0
v -30 -26 0
v -31 -26 0
v -31 -25 0
v -30 -25 0
v -29 -26 0
v -30 -26 0
v -30 -25 0
v -29 -25 0
v -28 -26 0
v -29 -26 0
v -29 -25 0
v -28 -25 0
v -27 -26 0
v -28 -26 0
v -28 -25 0
v -27 -25 0
v -25 -26 0
v -26 -26 0
v -26 -25 0
v -25 -25 0
v -51 -27 0
v -52 -27 0
v -52 -26 0
v -51 -26 0
v -47 -27 0
v -48 -27 0
v -48 -26 0
v -47 -26 0
v -42 -27 0
v -43 -27 0
v -43 -26 0
v -42 -26 0
v -28 -27 0
v -29 -27 0
v -29 -26 0
v -28 -26 0
v -27 -27 0
v -28 -27 0
v -28 -26 0
v -27 -26 0
v -26 -27 0
v -27 -27 0
v -27 -26 0
v -26 -26 0
v -25 -27 0
v -26 -27 0
v -26 -26 0
v -25 -26 0
v -56 -28 0
v -57 -28 0
v -57 -27 0
v -56 -27 0
v -51 -28 0
v -52 -28 0
v -52 -27 0
v -51 -27 0
v -47 -28 0
v -48 -28 0
v -48 -27 0
v -47 -27 0
v -42 -28 0
v -43 -28 0
v -43 -27 0
v -42 -27 0
v -32 -28 0
v -33 -28 0
v -33 -27 0
v -32 -27 0
v -31 -28 0
v -32 -28 0
v -32 -27 0
v -31 -27 0
v -30 -28 0
v -31 -28 0
v -31 -27 0
v -30 -27 0
v -29 -28 0
v -30 -28 0
v -30 -27 0
v -29 -27 0

# Texture cooridinates (Count = 60)
vt 0.2283058 0.6787072
vt 0.2448347 0.6787072
vt 0.2448347 0.7091255
vt 0.2283058 0.7091255
vt 0.2809917 0.6463878
vt 0.2975207 0.6463878
vt 0.2975207 0.6768061
vt 0.2809917 0.6768061
vt 0.2458678 0.2908745
vt 0.2623967 0.2908745
vt 0.2623967 0.3212928
vt 0.2458678 0.3212928
vt 0.2283058 0.2908745
vt 0.2448347 0.2908745
vt 0.2448347 0.3212928
vt 0.2283058 0.3212928
vt 0.2809917 0.6140684
vt 0.2975207 0.6140684
vt 0.2975207 0.6444867
vt 0.2809917 0.6444867
vt 0.2458678 0.2585551
vt 0.2623967 0.2585551
vt 0.2623967 0.2889734
vt 0.2458678 0.2889734
vt 0.2283058 0.2585551
vt 0.2448347 0.2585551
vt 0.2448347 0.2889734
vt 0.2283058 0.2889734
vt 0.3161157 0.2585551
vt 0.3326446 0.2585551
vt 0.3326446 0.2889734
vt 0.3161157 0.2889734
vt 0.3336777 0.4847909
vt 0.3502066 0.4847909
vt 0.3502066 0.5152091
vt 0.3336777 0.5152091
vt 0.3161157 0.4847909
vt 0.3326446 0.4847909
vt 0.3326446 0.5152091
vt 0.3161157 0.5152091
vt 0.2985537 0.4847909
vt 0.3150826 0.4847909
vt 0.3150826 0.5152091
vt 0.2985537 0.5152091
vt 0.2809917 0.4847909
vt 0.2975207 0.4847909
vt 0.2975207 0.5152091
vt 0.2809917 0.5152091
vt 0.2283058 0.4847909
vt 0.2448347 0.4847909
vt 0.2448347 0.5152091
vt 0.2283058 0.5152091
vt 0.2458678 0.4847909
vt 0.2623967 0.4847909
vt 0.2623967 0.5152091
vt 0.2458678 0.5152091
vt 0.08780992 0.4201521
vt 0.1043388 0.4201521
vt 0.1043388 0.4505703
vt 0.08780992 0.4505703

# Normal
vn 0 0 -1

# Mesh description
g map1_mesh_0003

# Faces
f 1/1/1 2/2/1 3/3/1 4/4/1
f 5/5/1 6/6/1 7/7/1 8/8/1
f 9/5/1 10/6/1 11/7/1 12/8/1
f 13/9/1 14/10/1 15/11/1 16/12/1
f 17/13/1 18/14/1 19/15/1 20/16/1
f 21/1/1 22/2/1 23/3/1 24/4/1
f 25/17/1 26/18/1 27/19/1 28/20/1
f 29/17/1 30/18/1 31/19/1 32/20/1
f 33/5/1 34/6/1 35/7/1 36/8/1
f 37/5/1 38/6/1 39/7/1 40/8/1
f 41/9/1 42/10/1 43/11/1 44/12/1
f 45/21/1 46/22/1 47/23/1 48/24/1
f 49/25/1 50/26/1 51/27/1 52/28/1
f 53/13/1 54/14/1 55/15/1 56/16/1
f 57/17/1 58/18/1 59/19/1 60/20/1
f 61/17/1 62/18/1 63/19/1 64/20/1
f 65/9/1 66/10/1 67/11/1 68/12/1
f 69/21/1 70/22/1 71/23/1 72/24/1
f 73/29/1 74/30/1 75/31/1 76/32/1
f 77/29/1 78/30/1 79/31/1 80/32/1
f 81/25/1 82/26/1 83/27/1 84/28/1
f 85/13/1 86/14/1 87/15/1 88/16/1
f 89/5/1 90/6/1 91/7/1 92/8/1
f 93/21/1 94/22/1 95/23/1 96/24/1
f 97/29/1 98/30/1 99/31/1 100/32/1
f 101/29/1 102/30/1 103/31/1 104/32/1
f 105/29/1 106/30/1 107/31/1 108/32/1
f 109/29/1 110/30/1 111/31/1 112/32/1
f 113/25/1 114/26/1 115/27/1 116/28/1
f 117/17/1 118/18/1 119/19/1 120/20/1
f 121/29/1 122/30/1 123/31/1 124/32/1
f 125/29/1 126/30/1 127/31/1 128/32/1
f 129/29/1 130/30/1 131/31/1 132/32/1
f 133/29/1 134/30/1 135/31/1 136/32/1
f 137/29/1 138/30/1 139/31/1 140/32/1
f 141/29/1 142/30/1 143/31/1 144/32/1
f 145/5/1 146/6/1 147/7/1 148/8/1
f 149/5/1 150/6/1 151/7/1 152/8/1
f 153/33/1 154/34/1 155/35/1 156/36/1
f 157/37/1 158/38/1 159/39/1 160/40/1
f 161/37/1 162/38/1 163/39/1 164/40/1
f 165/37/1 166/38/1 167/39/1 168/40/1
f 169/37/1 170/38/1 171/39/1 172/40/1
f 173/41/1 174/42/1 175/43/1 176/44/1
f 177/17/1 178/18/1 179/19/1 180/20/1
f 181/17/1 182/18/1 183/19/1 184/20/1
f 185/33/1 186/34/1 187/35/1 188/36/1
f 189/37/1 190/38/1 191/39/1 192/40/1
f 193/37/1 194/38/1 195/39/1 196/40/1
f 197/37/1 198/38/1 199/39/1 200/40/1
f 201/37/1 202/38/1 203/39/1 204/40/1
f 205/41/1 206/42/1 207/43/1 208/44/1
f 209/5/1 210/6/1 211/7/1 212/8/1
f 213/33/1 214/34/1 215/35/1 216/36/1
f 217/37/1 218/38/1 219/39/1 220/40/1
f 221/37/1 222/38/1 223/39/1 224/40/1
f 225/37/1 226/38/1 227/39/1 228/40/1
f 229/37/1 230/38/1 231/39/1 232/40/1
f 233/41/1 234/42/1 235/43/1 236/44/1
f 237/1/1 238/2/1 239/3/1 240/4/1
f 241/1/1 242/2/1 243/3/1 244/4/1
f 245/17/1 246/18/1 247/19/1 248/20/1
f 249/45/1 250/46/1 251/47/1 252/48/1
f 253/49/1 254/50/1 255/51/1 256/52/1
f 257/49/1 258/50/1 259/51/1 260/52/1
f 261/49/1 262/50/1 263/51/1 264/52/1
f 265/49/1 266/50/1 267/51/1 268/52/1
f 269/53/1 270/54/1 271/55/1 272/56/1
f 273/57/1 274/58/1 275/59/1 276/60/1
f 277/1/1 278/2/1 279/3/1 280/4/1
f 281/1/1 282/2/1 283/3/1 284/4/1
f 285/1/1 286/2/1 287/3/1 288/4/1
f 289/1/1 290/2/1 291/3/1 292/4/1
f 293/5/1 294/6/1 295/7/1 296/8/1
f 297/5/1 298/6/1 299/7/1 300/8/1
f 301/1/1 302/2/1 303/3/1 304/4/1
f 305/1/1 306/2/1 307/3/1 308/4/1
f 309/1/1 310/2/1 311/3/1 312/4/1
f 313/1/1 314/2/1 315/3/1 316/4/1
f 317/17/1 318/18/1 319/19/1 320/20/1
f 321/1/1 322/2/1 323/3/1 324/4/1
f 325/17/1 326/18/1 327/19/1 328/20/1
f 329/5/1 330/6/1 331/7/1 332/8/1
f 333/1/1 334/2/1 335/3/1 336/4/1
f 337/1/1 338/2/1 339/3/1 340/4/1
f 341/5/1 342/6/1 343/7/1 344/8/1
f 345/17/1 346/18/1 347/19/1 348/20/1
f 349/1/1 350/2/1 351/3/1 352/4/1
f 353/1/1 354/2/1 355/3/1 356/4/1
f 357/17/1 358/18/1 359/19/1 360/20/1
f 361/5/1 362/6/1 363/7/1 364/8/1
f 365/5/1 366/6/1 367/7/1 368/8/1
f 369/1/1 370/2/1 371/3/1 372/4/1
f 373/1/1 374/2/1 375/3/1 376/4/1
f 377/17/1 378/18/1 379/19/1 380/20/1
f 381/1/1 382/2/1 383/3/1 384/4/1
f 385/17/1 386/18/1 387/19/1 388/20/1
f 389/1/1 390/2/1 391/3/1 392/4/1
f 393/1/1 394/2/1 395/3/1 396/4/1
f 397/5/1 398/6/1 399/7/1 400/8/1
f 401/5/1 402/6/1 403/7/1 404/8/1
f 405/1/1 406/2/1 407/3/1 408/4/1
f 409/1/1 410/2/1 411/3/1 412/4/1
f 413/17/1 414/18/1 415/19/1 416/20/1
f 417/5/1 418/6/1 419/7/1 420/8/1
f 421/1/1 422/2/1 423/3/1 424/4/1
f 425/17/1 426/18/1 427/19/1 428/20/1
f 429/1/1 430/2/1 431/3/1 432/4/1
f 433/1/1 434/2/1 435/3/1 436/4/1
f 437/17/1 438/18/1 439/19/1 440/20/1
f 441/5/1 442/6/1 443/7/1 444/8/1
f 445/1/1 446/2/1 447/3/1 448/4/1
f 449/1/1 450/2/1 451/3/1 452/4/1
f 453/1/1 454/2/1 455/3/1 456/4/1
f 457/1/1 458/2/1 459/3/1 460/4/1
f 461/17/1 462/18/1 463/19/1 464/20/1
f 465/1/1 466/2/1 467/3/1 468/4/1
f 469/1/1 470/2/1 471/3/1 472/4/1
f 473/1/1 474/2/1 475/3/1 476/4/1
f 477/1/1 478/2/1 479/3/1 480/4/1
f 481/1/1 482/2/1 483/3/1 484/4/1
f 485/1/1 486/2/1 487/3/1 488/4/1
f 489/5/1 490/6/1 491/7/1 492/8/1
f 493/5/1 494/6/1 495/7/1 496/8/1
f 497/5/1 498/6/1 499/7/1 500/8/1
f 501/1/1 502/2/1 503/3/1 504/4/1
f 505/1/1 506/2/1 507/3/1 508/4/1
f 509/1/1 510/2/1 511/3/1 512/4/1
f 513/1/1 514/2/1 515/3/1 516/4/1
f 517/1/1 518/2/1 519/3/1 520/4/1
f 521/17/1 522/18/1 523/19/1 524/20/1
f 525/17/1 526/18/1 527/19/1 528/20/1
f 529/17/1 530/18/1 531/19/1 532/20/1
f 533/1/1 534/2/1 535/3/1 536/4/1
f 537/1/1 538/2/1 539/3/1 540/4/1
f 541/1/1 542/2/1 543/3/1 544/4/1
f 545/1/1 546/2/1 547/3/1 548/4/1

