# Tiled2Unity generated file. Do not modify by hand.
# Wavefront file for 'BattleMapLeft01_mesh_0002.obj'

# Vertices (Count = 192)
v -74 -13 0
v -75 -13 0
v -75 -12 0
v -74 -12 0
v -73 -13 0
v -74 -13 0
v -74 -12 0
v -73 -12 0
v -74 -15 0
v -75 -15 0
v -75 -14 0
v -74 -14 0
v -73 -15 0
v -74 -15 0
v -74 -14 0
v -73 -14 0
v -74 -17 0
v -75 -17 0
v -75 -16 0
v -74 -16 0
v -73 -17 0
v -74 -17 0
v -74 -16 0
v -73 -16 0
v -74 -19 0
v -75 -19 0
v -75 -18 0
v -74 -18 0
v -73 -19 0
v -74 -19 0
v -74 -18 0
v -73 -18 0
v -74 -21 0
v -75 -21 0
v -75 -20 0
v -74 -20 0
v -73 -21 0
v -74 -21 0
v -74 -20 0
v -73 -20 0
v -74 -23 0
v -75 -23 0
v -75 -22 0
v -74 -22 0
v -73 -23 0
v -74 -23 0
v -74 -22 0
v -73 -22 0
v -74 -25 0
v -75 -25 0
v -75 -24 0
v -74 -24 0
v -73 -25 0
v -74 -25 0
v -74 -24 0
v -73 -24 0
v -74 -27 0
v -75 -27 0
v -75 -26 0
v -74 -26 0
v -73 -27 0
v -74 -27 0
v -74 -26 0
v -73 -26 0
v -74 -29 0
v -75 -29 0
v -75 -28 0
v -74 -28 0
v -73 -29 0
v -74 -29 0
v -74 -28 0
v -73 -28 0
v -74 -31 0
v -75 -31 0
v -75 -30 0
v -74 -30 0
v -73 -31 0
v -74 -31 0
v -74 -30 0
v -73 -30 0
v -74 -33 0
v -75 -33 0
v -75 -32 0
v -74 -32 0
v -73 -33 0
v -74 -33 0
v -74 -32 0
v -73 -32 0
v -74 -35 0
v -75 -35 0
v -75 -34 0
v -74 -34 0
v -73 -35 0
v -74 -35 0
v -74 -34 0
v -73 -34 0
v -74 -37 0
v -75 -37 0
v -75 -36 0
v -74 -36 0
v -73 -37 0
v -74 -37 0
v -74 -36 0
v -73 -36 0
v -74 -39 0
v -75 -39 0
v -75 -38 0
v -74 -38 0
v -73 -39 0
v -74 -39 0
v -74 -38 0
v -73 -38 0
v -74 -46 0
v -75 -46 0
v -75 -45 0
v -74 -45 0
v -73 -46 0
v -74 -46 0
v -74 -45 0
v -73 -45 0
v -74 -48 0
v -75 -48 0
v -75 -47 0
v -74 -47 0
v -73 -48 0
v -74 -48 0
v -74 -47 0
v -73 -47 0
v -74 -50 0
v -75 -50 0
v -75 -49 0
v -74 -49 0
v -73 -50 0
v -74 -50 0
v -74 -49 0
v -73 -49 0
v -74 -52 0
v -75 -52 0
v -75 -51 0
v -74 -51 0
v -73 -52 0
v -74 -52 0
v -74 -51 0
v -73 -51 0
v -74 -54 0
v -75 -54 0
v -75 -53 0
v -74 -53 0
v -73 -54 0
v -74 -54 0
v -74 -53 0
v -73 -53 0
v -74 -56 0
v -75 -56 0
v -75 -55 0
v -74 -55 0
v -73 -56 0
v -74 -56 0
v -74 -55 0
v -73 -55 0
v -74 -58 0
v -75 -58 0
v -75 -57 0
v -74 -57 0
v -73 -58 0
v -74 -58 0
v -74 -57 0
v -73 -57 0
v -74 -60 0
v -75 -60 0
v -75 -59 0
v -74 -59 0
v -73 -60 0
v -74 -60 0
v -74 -59 0
v -73 -59 0
v -74 -62 0
v -75 -62 0
v -75 -61 0
v -74 -61 0
v -73 -62 0
v -74 -62 0
v -74 -61 0
v -73 -61 0
v -74 -64 0
v -75 -64 0
v -75 -63 0
v -74 -63 0
v -73 -64 0
v -74 -64 0
v -74 -63 0
v -73 -63 0

# Texture cooridinates (Count = 6)
vt 0.75 0.62
vt 0.875 0.62
vt 0.875 0.64
vt 0.75 0.64
vt 0.625 0.62
vt 0.625 0.64

# Normal
vn 0 0 -1

# Mesh description
g BattleMapLeft01_mesh_0002

# Faces
f 1/1/1 2/2/1 3/3/1 4/4/1
f 5/5/1 6/1/1 7/4/1 8/6/1
f 9/1/1 10/2/1 11/3/1 12/4/1
f 13/5/1 14/1/1 15/4/1 16/6/1
f 17/1/1 18/2/1 19/3/1 20/4/1
f 21/5/1 22/1/1 23/4/1 24/6/1
f 25/1/1 26/2/1 27/3/1 28/4/1
f 29/5/1 30/1/1 31/4/1 32/6/1
f 33/1/1 34/2/1 35/3/1 36/4/1
f 37/5/1 38/1/1 39/4/1 40/6/1
f 41/1/1 42/2/1 43/3/1 44/4/1
f 45/5/1 46/1/1 47/4/1 48/6/1
f 49/1/1 50/2/1 51/3/1 52/4/1
f 53/5/1 54/1/1 55/4/1 56/6/1
f 57/1/1 58/2/1 59/3/1 60/4/1
f 61/5/1 62/1/1 63/4/1 64/6/1
f 65/1/1 66/2/1 67/3/1 68/4/1
f 69/5/1 70/1/1 71/4/1 72/6/1
f 73/1/1 74/2/1 75/3/1 76/4/1
f 77/5/1 78/1/1 79/4/1 80/6/1
f 81/1/1 82/2/1 83/3/1 84/4/1
f 85/5/1 86/1/1 87/4/1 88/6/1
f 89/1/1 90/2/1 91/3/1 92/4/1
f 93/5/1 94/1/1 95/4/1 96/6/1
f 97/1/1 98/2/1 99/3/1 100/4/1
f 101/5/1 102/1/1 103/4/1 104/6/1
f 105/1/1 106/2/1 107/3/1 108/4/1
f 109/5/1 110/1/1 111/4/1 112/6/1
f 113/1/1 114/2/1 115/3/1 116/4/1
f 117/5/1 118/1/1 119/4/1 120/6/1
f 121/1/1 122/2/1 123/3/1 124/4/1
f 125/5/1 126/1/1 127/4/1 128/6/1
f 129/1/1 130/2/1 131/3/1 132/4/1
f 133/5/1 134/1/1 135/4/1 136/6/1
f 137/1/1 138/2/1 139/3/1 140/4/1
f 141/5/1 142/1/1 143/4/1 144/6/1
f 145/1/1 146/2/1 147/3/1 148/4/1
f 149/5/1 150/1/1 151/4/1 152/6/1
f 153/1/1 154/2/1 155/3/1 156/4/1
f 157/5/1 158/1/1 159/4/1 160/6/1
f 161/1/1 162/2/1 163/3/1 164/4/1
f 165/5/1 166/1/1 167/4/1 168/6/1
f 169/1/1 170/2/1 171/3/1 172/4/1
f 173/5/1 174/1/1 175/4/1 176/6/1
f 177/1/1 178/2/1 179/3/1 180/4/1
f 181/5/1 182/1/1 183/4/1 184/6/1
f 185/1/1 186/2/1 187/3/1 188/4/1
f 189/5/1 190/1/1 191/4/1 192/6/1

