# Tiled2Unity generated file. Do not modify by hand.
# Wavefront file for 'house1_mesh_0002.obj'

# Vertices (Count = 92)
v -8 -2 0
v -9 -2 0
v -9 -1 0
v -8 -1 0
v -1 -2 0
v -2 -2 0
v -2 -1 0
v -1 -1 0
v -8 -3 0
v -9 -3 0
v -9 -2 0
v -8 -2 0
v -7 -3 0
v -8 -3 0
v -8 -2 0
v -7 -2 0
v -6 -3 0
v -7 -3 0
v -7 -2 0
v -6 -2 0
v -4 -3 0
v -5 -3 0
v -5 -2 0
v -4 -2 0
v -2 -3 0
v -3 -3 0
v -3 -2 0
v -2 -2 0
v -1 -3 0
v -2 -3 0
v -2 -2 0
v -1 -2 0
v -2 -4 0
v -3 -4 0
v -3 -3 0
v -2 -3 0
v -1 -4 0
v -2 -4 0
v -2 -3 0
v -1 -3 0
v -8 -5 0
v -9 -5 0
v -9 -4 0
v -8 -4 0
v -7 -5 0
v -8 -5 0
v -8 -4 0
v -7 -4 0
v -6 -5 0
v -7 -5 0
v -7 -4 0
v -6 -4 0
v -8 -6 0
v -9 -6 0
v -9 -5 0
v -8 -5 0
v -7 -6 0
v -8 -6 0
v -8 -5 0
v -7 -5 0
v -6 -6 0
v -7 -6 0
v -7 -5 0
v -6 -5 0
v -4 -6 0
v -5 -6 0
v -5 -5 0
v -4 -5 0
v -1 -6 0
v -2 -6 0
v -2 -5 0
v -1 -5 0
v -8 -8 0
v -9 -8 0
v -9 -7 0
v -8 -7 0
v -3 -8 0
v -4 -8 0
v -4 -7 0
v -3 -7 0
v -2 -8 0
v -3 -8 0
v -3 -7 0
v -2 -7 0
v -1 -8 0
v -2 -8 0
v -2 -7 0
v -1 -7 0
v -8 -9 0
v -9 -9 0
v -9 -8 0
v -8 -8 0

# Texture cooridinates (Count = 76)
vt 0.2985537 0.743346
vt 0.3150826 0.743346
vt 0.3150826 0.7737643
vt 0.2985537 0.7737643
vt 0.3336777 0.4201521
vt 0.3502066 0.4201521
vt 0.3502066 0.4505703
vt 0.3336777 0.4505703
vt 0.3161157 0.4201521
vt 0.3326446 0.4201521
vt 0.3326446 0.4505703
vt 0.3161157 0.4505703
vt 0.2985537 0.4201521
vt 0.3150826 0.4201521
vt 0.3150826 0.4505703
vt 0.2985537 0.4505703
vt 0.4566116 0.7110266
vt 0.4731405 0.7110266
vt 0.4731405 0.7414448
vt 0.4566116 0.7414448
vt 0.2107438 0.7756654
vt 0.2272727 0.7756654
vt 0.2272727 0.8060837
vt 0.2107438 0.8060837
vt 0.1931818 0.8079848
vt 0.2097107 0.8079848
vt 0.2097107 0.838403
vt 0.1931818 0.838403
vt 0.1931818 0.7756654
vt 0.2097107 0.7756654
vt 0.2097107 0.8060837
vt 0.1931818 0.8060837
vt 0.1756198 0.8079848
vt 0.1921488 0.8079848
vt 0.1921488 0.838403
vt 0.1756198 0.838403
vt 0.8780992 0.5817491
vt 0.8946281 0.5817491
vt 0.8946281 0.6121673
vt 0.8780992 0.6121673
vt 0.8254132 0.5817491
vt 0.8419421 0.5817491
vt 0.8419421 0.6121673
vt 0.8254132 0.6121673
vt 0.7902893 0.5817491
vt 0.8068182 0.5817491
vt 0.8068182 0.6121673
vt 0.7902893 0.6121673
vt 0.4390496 0.9695817
vt 0.4555785 0.9695817
vt 0.4555785 1
vt 0.4390496 1
vt 0.2634298 0.904943
vt 0.2799587 0.904943
vt 0.2799587 0.9353612
vt 0.2634298 0.9353612
vt 0.4566116 0.8079848
vt 0.4731405 0.8079848
vt 0.4731405 0.838403
vt 0.4566116 0.838403
vt 0.3863636 0.8079848
vt 0.4028926 0.8079848
vt 0.4028926 0.838403
vt 0.3863636 0.838403
vt 0.4039256 0.8403042
vt 0.4204545 0.8403042
vt 0.4204545 0.8707224
vt 0.4039256 0.8707224
vt 0.3688017 0.8079848
vt 0.3853306 0.8079848
vt 0.3853306 0.838403
vt 0.3688017 0.838403
vt 0.4917355 0.8403042
vt 0.5082645 0.8403042
vt 0.5082645 0.8707224
vt 0.4917355 0.8707224

# Normal
vn 0 0 -1

# Mesh description
g house1_mesh_0002

# Faces
f 1/1/1 2/2/1 3/3/1 4/4/1
f 5/1/1 6/2/1 7/3/1 8/4/1
f 9/5/1 10/6/1 11/7/1 12/8/1
f 13/9/1 14/10/1 15/11/1 16/12/1
f 17/13/1 18/14/1 19/15/1 20/16/1
f 21/17/1 22/18/1 23/19/1 24/20/1
f 25/21/1 26/22/1 27/23/1 28/24/1
f 29/25/1 30/26/1 31/27/1 32/28/1
f 33/29/1 34/30/1 35/31/1 36/32/1
f 37/33/1 38/34/1 39/35/1 40/36/1
f 41/37/1 42/38/1 43/39/1 44/40/1
f 45/41/1 46/42/1 47/43/1 48/44/1
f 49/45/1 50/46/1 51/47/1 52/48/1
f 53/37/1 54/38/1 55/39/1 56/40/1
f 57/41/1 58/42/1 59/43/1 60/44/1
f 61/45/1 62/46/1 63/47/1 64/48/1
f 65/49/1 66/50/1 67/51/1 68/52/1
f 69/53/1 70/54/1 71/55/1 72/56/1
f 73/57/1 74/58/1 75/59/1 76/60/1
f 77/61/1 78/62/1 79/63/1 80/64/1
f 81/65/1 82/66/1 83/67/1 84/68/1
f 85/69/1 86/70/1 87/71/1 88/72/1
f 89/73/1 90/74/1 91/75/1 92/76/1

